<?xml version="1.0" encoding="UTF-8"?>
<svg id="Layer_1" data-name="Layer 1" xmlns="http://www.w3.org/2000/svg" xmlns:xlink="http://www.w3.org/1999/xlink" viewBox="0 0 2961.77 2088.36">
  <defs>
    <style>
      .cls-1 {
        fill: #e6e6e7;
      }

      .cls-2 {
        fill: none;
      }

      .cls-3 {
        fill: url(#New_Pattern_Swatch_2);
        opacity: .2;
        stroke: #fedbc2;
        stroke-miterlimit: 10;
      }
    </style>
    <pattern id="New_Pattern_Swatch_2" data-name="New Pattern Swatch 2" x="0" y="0" width="1000" height="1000" patternTransform="translate(-1326.93 -3840.73)" patternUnits="userSpaceOnUse" viewBox="0 0 1000 1000">
      <g>
        <rect class="cls-2" width="1000" height="1000"/>
        <path class="cls-1" d="M0,1000h23.13c-7.7-1.26-15.41-2.41-23.13-3.24v3.24Z"/>
        <path class="cls-1" d="M968.74,995.73c-9.51.56-18.89,2.06-28.12,4.27h59.38v-3.24c-10.4-1.11-20.82-1.64-31.26-1.03Z"/>
        <path class="cls-1" d="M480.28,122.39c-52.58,30.12-104.76,61.56-152.04,99.65-7.57,6.1-29.08,25.14-29.08,25.14,0,0,139.17-34.79,204.42-63.92,65.26-29.13,126.32-76.02,153.56-142.09,4.58-11.11,8.05-25.79,10.67-41.17h-37.23c-5.4,7.47-10.99,14.71-16.69,21.69-36.57,44.77-84.28,72.46-133.61,100.71Z"/>
        <path class="cls-1" d="M270.31,226.49c-.11,17.44-1.03,34.88-2.76,52.24,16.95-35.33,34.4-71.38,62.05-99.14,11.79-11.84,25.17-21.28,39.14-30.32,11.57-7.5,23.44-14.53,35.45-21.31,29.2-16.5,59.31-30.88,88.46-47.49,19.52-11.12,38.56-23.63,57.11-36.7,20.62-14.52,37.37-29.42,50.97-43.78h-37.67c-61.06,34.73-133.72,42.38-196.52,74.73-55.71,28.69-95.82,88.42-96.22,151.77Z"/>
        <path class="cls-1" d="M442.55,0h-61.29c-10.39,14.66-19.31,30.54-27.54,46.5,23.61-24.25,56-37.22,88.82-46.5Z"/>
        <path class="cls-1" d="M630.58,1000h37.23c6.73-39.49,7.86-83.58,7.86-83.58-10.26,29.5-26.52,57.88-45.1,83.58Z"/>
        <path class="cls-1" d="M642.77,928.31c-4.97,6.68-10.23,13.13-15.78,19.33-11.09,12.4-23.3,23.81-36.42,34.04-8.84,6.89-18.04,12.93-27.52,18.33h37.67c45.79-48.35,55.67-90.46,55.67-90.46,0,0-9.07,12.67-13.61,18.76Z"/>
        <path class="cls-1" d="M565.85,959.7c28.39-16.78,50.77-41.51,70.36-67.67-18.62,19.65-48.09,22.02-73.48,24.22-50.88,4.4-104.14,12.7-144.46,44.04-14.4,11.19-26.46,24.82-37,39.71h61.29c4.62-1.31,9.26-2.54,13.87-3.72,37.4-9.56,76.19-16.94,109.42-36.58Z"/>
        <path class="cls-1" d="M769.71,438.84c-42.79,19.65-80.77,49.48-122.18,70.71-43.28,22.18-97.49,45.22-147.69,36.93-7.74-1.28-15.38-3.3-22.87-6.18-10.48-4.03-20.23-9.86-29.28-16.46-3.99-2.91-24.2-16-24.16-20.85-.13,18.11,2.27,34.33,12.41,49.68,27.52,41.67,85.52,53.79,132.16,48.22,17.83-2.13,35.48-6.41,51.93-13.63,70.22-30.8,114.94-103.36,189.27-126.7,31.06-9.75,69.66-8.9,102.1-5.99-46.01-34.7-92.71-38.23-141.69-15.73Z"/>
        <path class="cls-1" d="M879.45,471.4c-13.13.23-26.39,1.64-38.87,5.59-3.28,1.04-6.54,2.18-9.78,3.42-19.75,7.56-38.56,18.63-55.24,30.63-17.95,12.91-33.18,28.54-49.66,42.98-17.17,15.04-36.73,27.46-56.08,39.98-17.79,11.52-35.28,22.78-56.22,28.64-27.78,7.79-61.15,8.25-88.5-1.53,5.71,2.04,11.01,5.73,16.72,7.98,5.96,2.36,12.11,4.3,18.36,5.86,12.58,3.14,25.57,4.7,38.57,5.03,25.38.64,51.09-3.25,75.26-10.37,47.4-13.96,89.3-43.09,124.78-74.93,13.75-12.33,27.8-24.12,40.87-37.16,30.09-30.02,79.31-44.58,79.31-44.58,0,0-13.6-.88-19.23-1.15-6.76-.33-13.53-.53-20.3-.41Z"/>
        <path class="cls-1" d="M842.27,557.89c-24.67,20.46-46.68,43.83-72.78,62.71-51.45,37.22-120.57,58.83-185.08,47.83-30.58-5.22-59.13-17.88-85.81-32.83-12.88-7.21-25.64-14.81-37.77-23.15-6.55-4.51-12.98-9.19-19.24-14.07-4.33-3.38-17.44-14.43-17.44-14.43,0,0,31.75,67.61,140.56,110.81,70.81,28.12,159.16,17.12,224.51-23.17,5.88-3.63,11.58-7.53,17.06-11.71,7.03-5.36,13.72-11.14,19.98-17.31,20.56-20.25,36.82-44,52.31-67.92,13.87-21.42,25.98-45.91,48.6-60.21-30.41,4.87-57.51,21.29-81.09,40.32-1.28,1.04-2.56,2.08-3.83,3.13Z"/>
        <path class="cls-1" d="M970.18,369.52c-19.27,20.31-43.49,51.08-41.11,80.59,2.27-8.62,7.2-15.95,13.29-22.35,15.48-16.3,36.19-26.35,57.65-33.58v-50.94c-10.67,7.9-20.69,16.65-29.82,26.28Z"/>
        <path class="cls-1" d="M957.77,444.6c-13.13,15.78-21.58,35.41-24.02,55.79,9.36-17.6,24.22-35.06,41.89-44.8,6.9-3.8,15.5-5.62,24.36-6.66v-32.16c-9.1,3.22-17.75,7.27-25.62,12.7-6.04,4.17-11.63,9.13-16.62,15.13Z"/>
        <path class="cls-1" d="M948.85,510.68c.09-.12.18-.24.27-.36-.11.12-.21.24-.27.36Z"/>
        <path class="cls-1" d="M949.13,510.32c2.76-2.92,19.3-3.98,22.38-4.38,10.06-1.31,18.96.01,28.49,3.32v-30.31c-8.45,2.09-16.57,4.89-24.1,8.78-10.19,5.26-19.31,12.5-26.78,22.59Z"/>
        <path class="cls-1" d="M88.81,366.95c29.6-13.23,55.39-35.2,72.27-62.89,16.88-27.68,24.61-61.02,20.61-93.2-16.01,34.39-43.68,63.23-77.38,80.65-16.97,8.77-35.25,14.67-52.78,22.23-18.17,7.83-35.58,17.7-51.53,29.5v50.94c4.05-1.37,8.13-2.64,12.2-3.83,25.66-7.47,52.21-12.49,76.61-23.4Z"/>
        <path class="cls-1" d="M127.35,425.7c31.49-12.11,60.91-31.25,81.17-58.23,20.27-27,30.48-60.9,31.1-94.66.61-33.75-8.06-67.33-22.59-97.8,3.49,45.08-3.66,91.52-24.51,131.65-20.86,40.12-56.03,73.44-98.78,88.19-28.96,9.99-63.84,11.37-93.73,21.92v32.16c9.88-1.16,20.09-1.36,28.64-2.23,33.57-3.41,67.21-8.89,98.7-21Z"/>
        <path class="cls-1" d="M102.54,509.89c27.5-13.51,48.76-40.03,53.92-70.24-18.76,17.29-44.3,25.34-69.51,29.23-26.88,4.15-58.81,3.11-86.95,10.06v30.31c.2.07.4.13.6.21,33.92,12.05,68.24,16.98,101.94.42Z"/>
        <path class="cls-1" d="M361.23,357.24c-33.79,31.94-60.88,77.16-60.81,122.29.03,22.21,6.64,44.39,22.25,64.98-2.92-23.19-5.95-47.26,1.9-69.66,7.4-21.1,19.89-40.37,33.86-57.7,32.4-40.18,83.07-58.18,127.95-80.43,33.39-16.56,71.31-38.39,85.13-75.15,4.99-13.28,10.23-41.98,10.23-41.98,0,0-28.74,43.4-104.5,66-43.58,13-82.77,40.22-116.01,71.64Z"/>
        <path class="cls-1" d="M240.69,464.09c7.6,27.04,28.68,47.85,48.94,67.31-15.43-39.37-18-86.39-3.56-126.35,12.74-35.25,37.17-65.76,67.28-88.07,19.31-14.31,40.82-25.34,62.51-35.7,32.32-15.44,65.93-29.72,101.55-33.49-47.2.87-94.88,3.96-140.05,17.67-39.28,11.93-75.8,32.33-103.89,62.53-27.89,29.98-39.55,75.92-36.17,116.09.57,6.75,1.56,13.48,3.39,20Z"/>
        <path class="cls-1" d="M459.05,439.52c25.59-15.51,52.44-30.03,72.88-51.9,17.44-18.66,29.51-42.28,34.42-67.34-25.7,25.3-60.17,39.19-93.26,53.53-67.34,29.17-152.62,83.72-118.07,169.83,4.49,11.2,11.14,21.98,19.26,30.91,4.06,4.47,19.32,17.24,19.32,17.24,0,0-5.64-16.29-7.84-23.08-2.49-7.66-4.57-15.51-5.23-23.56-1.37-16.63,2.31-33.08,11.41-47.15,16.14-24.95,42.11-43.31,67.12-58.47Z"/>
        <path class="cls-1" d="M577.93,183.87l-23.43,14.13s81.01-11.29,110.08-29.12c34.36-21.07,56.67-58.31,66.36-97.44,5.78-23.34,7.47-47.37,6.77-71.45h-14.88c-23.24,76.48-75.18,144-144.89,183.87Z"/>
        <path class="cls-1" d="M672.81,198.38c-17.88,11.91-39.28,22.28-61.32,18.32,10.38,6.94,22.07,10.81,34.44,11.66,80.55,5.56,147.76-62.45,159.69-138.92,4.27-27.37,5.52-59.2.76-89.44h-33.45c-.08,18.01-1.22,36.04-4.53,53.73-10.9,58.35-46.19,111.75-95.59,144.65Z"/>
        <path class="cls-1" d="M722.82,1000h14.88c-.48-16.29-2.05-32.61-4.2-48.73-2.25,16.52-5.85,32.82-10.68,48.73Z"/>
        <path class="cls-1" d="M777.91,928.14c-7.75-10.03-26.22-27.15-26.22-27.15,0,0,20.65,58.84,21.16,88.15.06,3.62.09,7.24.07,10.86h33.45c-4.18-26.53-12.99-51.84-28.46-71.86Z"/>
        <path class="cls-1" d="M501.93,444s5.4,6.3,7.71,9.34c3.06,4.02,6.75,7.25,11.08,9.98,9.1,5.75,19.97,8.61,30.7,8.75,35.25.45,59.31-23.55,74.39-53.26,13.65-26.9,25.87-54.45,39.7-81.29,9.37-18.17,18.33-39.05,30.79-56.51,6.06-8.49,12.94-16.17,21.09-22.33,8.85-6.69,28.83-17.08,28.83-17.08,0,0-15.5-.1-20.75.42-28.36,2.77-46.98,14.42-63.68,37.17-23.71,32.32-37.6,71.8-55.54,107.42-39.39,78.19-104.32,57.4-104.32,57.4Z"/>
        <path class="cls-1" d="M682.87,353.91c-5.97,14.67-11.43,29.38-16.77,43.51-10.31,27.28-17.64,56.49-40.7,76.28,3.05-2.62,11.75-3.38,15.74-5.19,5.43-2.46,10.58-5.54,15.32-9.16,16.35-12.48,29.69-33.09,40.84-50.23,32.69-50.25,47.18-108.83,77.56-160.26,9.77-16.54,38.37-42,38.37-42,0,0-50.44,27.99-70.78,48.13-27,26.74-44.85,62.74-59.57,98.93Z"/>
        <path class="cls-1" d="M743.65,379.54c-6.26,9.22-13,18.16-19.86,27.04-2.07,2.68-4.15,5.35-6.23,8.02-7.38,9.47-15.4,20.66-28.24,25.05,53.35-18.24,96.59-54.22,121.47-98.81,23.19-41.57,26.21-89.98,53.63-129.78,15.98-23.2,39.89-41.53,65.1-57.44-10.94,3.27-21.72,6.92-32.32,10.94-17.69,6.71-35.07,14.57-49.3,25.86-19.23,15.26-31.61,35.93-40.86,57.05-19.79,45.22-34.81,90.01-63.38,132.06Z"/>
        <path class="cls-1" d="M907.31,390.16c28.53-26.92,53.65-73.05,90.79-88.2.63-.26,1.27-.51,1.9-.76v-74.73c-43.69,31.84-82.24,110.97-92.69,163.69Z"/>
        <path class="cls-1" d="M894.47,237.18c-3.84,8.24-6.55,16.9-9.36,25.53-22.08,67.77.11,125.83.11,125.83,0,0,4.55-24.7,6.05-30.76,9.23-37.34,18.33-72.72,40.88-104.62,18.02-25.48,41.74-47.22,67.86-63.8v-47.56c-7.69,2.74-15.19,6-22.43,9.78-35.68,18.61-66.12,49.21-83.1,85.6Z"/>
        <path class="cls-1" d="M125.42,206.12c10.08-24.59,14.85-51.01,18.13-77.38-14.28,25.19-39.3,42.41-64.95,55.82-25.66,13.42-52.93,24.03-76.71,40.56-.63.44-1.26.89-1.89,1.35v74.73c26.2-10.43,54.49-16.67,77.71-32.63,21.89-15.05,37.64-37.87,47.71-62.45Z"/>
        <path class="cls-1" d="M103.31,126.03s-44.68,4.4-66.15,6.99c-12.68,1.53-25.15,4.5-37.16,8.78v47.56c3.31-2.1,6.66-4.14,10.05-6.07,31.76-18.14,93.26-57.26,93.26-57.26Z"/>
        <path class="cls-1" d="M146.21,70.05c8.08-6.8,14.31-14.77,16.73-25.23,1.64-7.1,2.45-14.68,3.58-21.72-15.85,30.5-50.63,42.05-81.64,50.42-27.64,7.46-56.33,7.48-84.87,7.19v29.89c34.14-3.35,68.78-6.02,101.22-17.7,15.3-5.51,32.1-11.99,44.99-22.85Z"/>
        <path class="cls-1" d="M18.12,60.96c32.18-.84,66.8-10.43,85.74-36.46-25.9,12.96-56.55,13.15-84.96,7.51-6.33-1.26-12.61-2.79-18.9-4.23v33.02c6.04.23,12.08.32,18.12.16Z"/>
        <path class="cls-1" d="M119.53,5.36c5.7-1.26,11.35-3.06,16.79-5.36H23.13c7,1.15,13.98,2.38,20.96,3.53,24.97,4.14,50.71,7.27,75.43,1.83Z"/>
        <path class="cls-1" d="M177.19,960.78c-17.81,14.79-41.17,21.92-64.31,22.79-23.14.87-46.16-4.15-68.12-11.5-13.05-4.37-25.91-9.59-39.46-11.99-1.76-.31-3.53-.56-5.3-.78v37.46c7.72.83,15.44,1.98,23.13,3.24h113.18c18.13-7.68,33.85-21.06,40.87-39.22Z"/>
        <path class="cls-1" d="M948.13,962.76c-15.61,3.13-31.37,7.45-44.44,16.56-8.19,5.71-15.01,13.08-21.52,20.68h58.44c9.23-2.21,18.61-3.71,28.12-4.27,10.45-.61,20.87-.09,31.26,1.03v-37.46c-17.22-2.12-34.81.05-51.87,3.47Z"/>
        <path class="cls-1" d="M970.16,80.58c-29.35.36-60.58,3.44-85.27,20.69-22.73,15.88-38.55,39.9-48.82,65.31,5.34-13.21,35.28-26.57,47.37-32.25,18.71-8.79,37.48-13.5,56.73-16.64,14.8-2.41,29.87-3.9,45.39-5.61,4.8-.53,9.62-1.01,14.45-1.49v-29.89c-9.98-.1-19.95-.25-29.84-.12Z"/>
        <path class="cls-1" d="M852.07,86.81c20.19-17.06,42.97-26.56,69.6-28.63,26.07-2.03,52.2,1.63,78.33,2.62V27.79c-6.64-1.52-13.3-2.94-20.05-3.83-43.22-5.71-111.88,17.21-127.88,62.86Z"/>
        <path class="cls-1" d="M856.54,38.56c8.52-5.84,16.82-11.47,26.12-16.18,18.49-9.37,37.87-17.57,57.96-22.38h-58.44c-1.42,1.66-2.82,3.33-4.22,4.99-7.89,9.38-19.34,21.21-21.41,33.57Z"/>
        <path class="cls-1" d="M179.69,63.58c-7.93,32.14-9.38,67.66,6.14,96.91,1.45-59.12,38.17-106.95,58.65-160.49h-46.1c-2.42,7.72-4.88,15.48-7.29,23.28-4.09,13.24-8.03,26.63-11.41,40.3Z"/>
        <path class="cls-1" d="M240.88,89.17c-7.55,22.82-8.4,49.3,4.42,69.63-5.74-9.1,3.58-34.35,6.97-43.26,5.26-13.86,12.66-25.18,21.41-37.01,19.53-26.4,42.46-50.86,60.31-78.53h-46.45c-4.56,8.75-9.26,17.18-13.77,25.15-11.84,20.92-25.34,41.2-32.89,64.02Z"/>
        <path class="cls-1" d="M226.95,841.86c-2.98-2.74-14.71-8.93-15.79-12.25,19.86,61.06,4.59,114.92-12.77,170.39h46.1c.4-1.05.81-2.1,1.2-3.15,19.36-52.49,26.53-113.49-18.73-154.99Z"/>
        <path class="cls-1" d="M345.04,856.44c-19.95-35.27-56.33-58.32-96.98-59.91,17.93,5.96,30.36,21.97,41.11,37.51,8,11.55,15.76,23.42,20.79,36.53,16.32,42.55-1.58,89.44-22.41,129.43h46.45c5.43-8.42,10.4-17.14,14.65-26.3,17.54-37.82,17.06-80.72-3.6-117.26Z"/>
        <path class="cls-1" d="M412.74,803.95c-15.68-24.84-30.41-50.53-55.83-66.75-57.79-36.86-138.92-18.75-173.23,40.86,21.59-10.64,44.15-19.96,67.95-23.63,23.79-3.67,49.08-1.33,70.19,10.25,7.45,4.09,14.18,9.18,20.44,14.89,10.37,9.45,19.42,20.58,28.28,31.53,15.69,19.4,27.33,41.95,43.92,60.65,14.93,16.82,36.46,27.7,58.9,29.47,25.13,1.99,50.94-7.5,68.8-25.28-57.57,11.14-100.62-26.36-129.42-71.98Z"/>
        <path class="cls-1" d="M476.06,764.68c-18.99-23.93-38.98-49.25-67.43-60.39-19.29-7.55-41.39-7.65-60.75-.27,8.68-3.31,18.4.1,27.48,5.88,10.57,6.72,20.28,16.66,26.52,22.96,18.36,18.56,32.36,40.52,48.66,60.75,19.21,23.83,40.37,45.47,69.58,56.38,39.65,14.81,106.08,19.67,135.86-17.94,0,0-8.94,5.05-13.88,5.71-63.8,8.5-126.83-23.71-166.03-73.09Z"/>
        <path class="cls-1" d="M679.33,774.36c-21.07,5.07-42.38,3.65-63.33-1.17-29.82-6.86-58.04-21.41-80.83-41.83-28.3-25.35-50.62-59.96-86.34-72.91-13.92-5.05-28.92-6.34-43.73-6.35-8.48,0-16.99.4-25.31,2-24.98,4.79-49.77,20.75-65.73,40.38,6.62-8.15,27.8-12.3,37.55-14.54,14.03-3.23,28.54-4.36,42.9-3.33,29.84,2.13,51.13,11.88,70.98,34.06,13.98,15.62,28.51,30.75,43.55,45.36,18.81,18.27,38.76,35.96,62.4,47.31,23.63,11.35,51.47,14.08,76.15,5.49,47.41-16.5,66.74-49.16,66.74-49.16,0,0-23.69,11.97-35,14.69Z"/>
        <path class="cls-1" d="M890.56,703.99c43.71-37.2,71.3-100.61,42.22-155.33,5.42,13.34,1.18,28.73-5.72,41.37-17.63,32.27-50.25,54-77.17,77.9-28.37,25.19-58.41,48.57-85.23,75.48-3.61,3.62-7.21,7.3-10.76,11.06-23.02,24.39-43.61,52.02-46.14,86.47-2,27.2,2.75,54.45,8.96,81-6.75-28.85,1.79-61.37,15.71-86.88,17.91-32.82,54.7-51.59,83.73-73.28,24.92-18.63,50.61-37.55,74.4-57.8Z"/>
        <path class="cls-1" d="M962.31,542.51s38.72,62.64-16.67,146.46c-30.42,46.03-82.19,70.72-125.89,102.28-20.03,14.47-41.21,26.44-47.9,52.15-3.15,12.14-2.41,24.87,1.75,36.66,3.98,11.31,12.25,18.76,17.43,29.04-11.78-23.34.12-46.09,16.51-64.03,25.65-28.09,61.37-44.88,92.81-65.37,40.19-26.2,86.51-74.49,99.64-125.26v-53.06c-3.62-12.34-10.07-24.41-19.96-35.93-6.33-7.38-17.73-22.93-17.73-22.93Z"/>
        <path class="cls-1" d="M930.6,797.43c16.86-.6,33.22-6.5,47.83-14.92,7.45-4.3,14.68-9.11,21.57-14.39v-38.73c-18.32,27.94-40.13,50.07-69.4,68.04Z"/>
        <path class="cls-1" d="M985.11,540.06c4-.6,9.85,6.63,14.89,14.24v-12.64c-5.17-1.61-10.28-2.33-14.89-1.6Z"/>
        <path class="cls-1" d="M0,601.37v53.06c4.57-17.66,5.12-35.62,0-53.06Z"/>
        <path class="cls-1" d="M55.95,693.8c15.22-43.4,9.96-103.17-26.62-135.07-7.05-6.15-18.31-13.64-29.33-17.07v12.64c4.26,6.43,7.95,13.13,9.45,15.59.45.74.9,1.49,1.34,2.24,26.27,44.99,22.94,100.5-3.16,144.96-2.48,4.22-5.02,8.32-7.62,12.3v38.73c24.99-19.17,45.51-44.56,55.95-74.31Z"/>
        <path class="cls-1" d="M243.99,631.64c19.69,13.96,45.14,19.52,68.86,15.04,23.72-4.48,45.38-18.95,58.62-39.14-13.3,5.94-28.32,7.55-42.78,5.82-10.28-1.23-20.43-4.15-29.46-9.22-8.93-5.02-16.57-12-24.14-18.9-22.83-20.81-47.11-42.15-77.09-49.59-21.55-5.35-44.45-2.97-65.78,3.23-14.99,4.35-45.93,12.01-55.52,24.64,41.36,1.58,82.91-3.43,118.52,22.96,17.83,13.21,30.68,32.33,48.78,45.17Z"/>
        <path class="cls-1" d="M298.47,661.65s-56.83,12.34-96.08-14.27c-26.72-18.12-46.05-49.56-77.35-60.76-17.2-6.16-34.05.7-51.72-1.19,23.84,2.55,39.14,23.44,53.22,40.7,18.96,23.24,34.15,49.74,64.23,58.43,65.22,18.85,107.69-22.91,107.69-22.91Z"/>
        <path class="cls-1" d="M93.02,778.61c22.28-35.46,23.24-82.2,4.47-119.31-.78-1.54-1.59-3.07-2.44-4.57,6.09,25.03-2.67,51.38-15.06,73.97-15.3,27.9-36.73,52.33-62.91,70.5-5.55,3.85-11.26,7.25-17.08,10.3v39.18c36.32-15.85,71.64-36.06,93.02-70.08Z"/>
        <path class="cls-1" d="M145.97,814.43c8.75-17.25,14.14-36.9,12.75-56.35-.7-9.79-3.22-19.44-7.81-28.14-5.18-9.81-13.25-17.38-20.04-26.02-.65-.83-1.3-1.66-1.95-2.5,0,0,8.52,22,9.3,29.21,4.98,46.28-28.8,95.53-66.35,119.63-22.34,14.34-47.45,23.15-71.86,33.29v25.91c20.03-3.74,39.36-7.69,58.4-16.29,35.83-16.18,69.56-43.22,87.57-78.75Z"/>
        <path class="cls-1" d="M177.61,836.02c-5.22,13.23-13.11,25.28-22.63,35.81-21.19,23.45-51.16,40.41-80.69,51.05-4.47,1.61-8.99,3-13.57,4.15-7.23,1.81-14.6,2.99-22.09,3.42-3.61.21-19.53.76-19.53.76,0,0,11.52,5.49,15.22,7.15,5.34,2.41,10.79,4.7,16.41,6.38,6.45,1.92,13.15,3,19.84,3.68,40.66,4.12,88.1-11.78,106.42-50.97,11.99-25.64,6.45-83.58,6.45-83.58,0,0-3.03,15.02-5.84,22.14Z"/>
        <path class="cls-1" d="M860.48,877.92c-10.94,11.56-20.06,24.94-26.31,39.6-7.46,17.51-10.09,36.64-12.65,55.51,10.8-29.79,34.2-53.66,60.75-70.95,26.56-17.29,56.41-28.73,85.88-40.35,10.48-4.13,21.2-8.4,31.83-13.05v-39.18c-26.04,13.68-54.41,20.55-82.24,31.09-21.71,8.22-41.26,20.41-57.28,37.33Z"/>
        <path class="cls-1" d="M953.91,908.74c-5.35,4.35-10.37,9.14-14.76,14.47-4.03,4.89-6.19,10.99-10.25,15.87,14.81-17.66,38.52-23.53,60.2-27.59,3.66-.68,7.29-1.35,10.9-2.03v-25.91c-3.39,1.41-6.77,2.84-10.13,4.32-12.88,5.68-25,11.94-35.97,20.86Z"/>
      </g>
    </pattern>
  </defs>
  <rect class="cls-3" x="-.29" y="-7.48" width="2941.28" height="2095.66"/>
</svg>