<svg xmlns="http://www.w3.org/2000/svg" width="960" height="640" viewBox="0 0 960 640" fill="none">
  <g stroke-linecap="round" stroke="#D6A373">
    <g opacity=".2">
      <path d="M-140 548C-55 452 52 430 166 468c128 42 234 34 335-27 91-55 181-56 270-2 82 49 157 43 247-54" stroke-width="1.05"/>
      <path d="M-122 575C-37 476 67 457 179 495c131 44 242 35 347-29 87-53 172-54 256-3 86 52 164 45 254-48" stroke-width=".95"/>
      <path d="M-104 603C-20 500 83 485 193 522c135 46 250 37 360-31 83-51 162-52 243-3 89 54 170 48 260-42" stroke-width=".85"/>
      <path d="M-86 631C-3 525 99 513 207 550c139 47 257 38 373-33 78-48 153-49 229-3 93 56 177 51 267-35" stroke-width=".75"/>
    </g>

    <g opacity=".28">
      <path d="M574 119c92-88 196-91 313-23 72 42 139 36 218-41" stroke-width="1.1"/>
      <path d="M591 145c86-82 184-85 294-21 76 44 146 38 224-34" stroke-width="1"/>
      <path d="M608 171c81-76 172-79 276-19 80 47 153 40 230-27" stroke-width=".9"/>
      <path d="M626 197c75-70 160-72 257-16 84 49 160 42 236-20" stroke-width=".82"/>
      <path d="M644 223c69-64 148-66 239-14 88 51 167 44 242-13" stroke-width=".74"/>
      <path d="M662 249c63-58 136-60 220-12 92 53 174 47 248-6" stroke-width=".66"/>
    </g>

    <g opacity=".16">
      <path d="M-118 242c67-78 144-91 231-38 71 43 135 41 195-8 72-58 142-58 211 0" stroke-width=".9"/>
      <path d="M-96 268c62-72 133-83 212-35 74 45 141 43 205-9 67-54 132-54 197-1" stroke-width=".8"/>
      <path d="M-74 294c57-66 121-75 193-31 78 47 148 45 215-10 62-50 122-50 183-1" stroke-width=".7"/>
      <path d="M-52 320c52-60 110-67 174-28 81 49 154 47 225-11 57-46 112-46 169-1" stroke-width=".62"/>
    </g>

    <g opacity=".14">
      <path d="M376-58c68 60 81 123 39 188-36 56-30 111 18 165 42 48 47 100 15 156" stroke-width=".82"/>
      <path d="M407-67c62 56 73 115 34 175-34 52-28 103 17 154 39 45 43 93 13 145" stroke-width=".72"/>
      <path d="M438-76c56 51 66 106 30 162-31 48-25 95 16 143 35 41 39 86 11 134" stroke-width=".64"/>
    </g>
  </g>
</svg>
