<?xml version="1.0" encoding="UTF-8"?>
<svg id="Layer_1" data-name="Layer 1" xmlns="http://www.w3.org/2000/svg" viewBox="0 0 1989.19 863.99">
  <defs>
    <style>
      .cls-1 {
        font-family: VLAX, VLAX;
        font-size: 337.74px;
      }

      .cls-1, .cls-2, .cls-3 {
        fill: #fedbc2;
      }

      .cls-2 {
        font-family: PlayfairDisplay-Black, 'Playfair Display';
        font-size: 89.64px;
        font-weight: 800;
      }
    </style>
  </defs>
  <g>
    <text class="cls-1" transform="translate(801.35 474.13)"><tspan x="0" y="0">لاين كوفي</tspan></text>
    <g>
      <g>
        <path class="cls-3" d="M1082.55,636.82l3.98-4.07c.47-.47.71-1,.71-1.59s-.24-1.12-.71-1.59l-3.98-4.07-4.07,4.07c-.47.47-.71,1-.71,1.59s.23,1.12.71,1.59l4.07,4.07Z"/>
        <path class="cls-3" d="M1141.57,665.41l4.07-4.07c.19-.22.34-.46.44-.71.1.25.25.49.44.71l4.07,4.07,4.07-4.07c.47-.47.71-1,.71-1.59s-.24-1.12-.71-1.59l-4.07-4.07-4.07,4.07c-.19.22-.34.46-.44.71-.1-.25-.25-.49-.44-.71l-4.07-4.07-4.07,4.07c-.47.47-.71,1-.71,1.59s.24,1.12.71,1.59l4.07,4.07Z"/>
        <path class="cls-3" d="M1206.45,636.82l4.07-4.07c.41-.47.62-1,.62-1.59s-.21-1.12-.62-1.59l-4.07-4.07-4.07,4.07c-.47.47-.71,1-.71,1.59s.24,1.12.71,1.59l4.07,4.07Z"/>
        <path class="cls-3" d="M1067.33,687.8c-15.05,1.25-26.78-.92-29.49-5.41-1.09-1.81-1.47-3.78-1.47-3.78-.84-4.4,1.23-8.1,2.11-9.49.16-7.56-.82-13.38-1.74-16.23-.77-2.36-1.89-4.8-1.89-4.8-.62-1.34-.91-2.06-1.49-2.95-1.59-2.42-3.39-4.19-5.4-5.31-.71-.41-1.45-.62-2.21-.62-1.71,0-3.01.74-3.89,2.21-.41.77-.62,1.5-.62,2.21,0,1.71.74,3.01,2.21,3.89.77.41,1.53.62,2.3.62.59,0,1.15-.12,1.68-.35,1.3-.59,2.15-1.59,2.57-3.01.18-.41.44-.65.8-.71.35,0,.62.15.8.44.89,1.65,1.33,3.36,1.33,5.13,0,.65-.06,1.3-.18,1.95-.41,2.42-1.95,4.46-4.6,6.11-1.83,1.18-2.74,2.8-2.74,4.87v.53c.06,3.3.62,6.55,1.68,9.73,1.12,3.48,2.76,6.59,4.91,9.34,1.27,1.61,2.42,2.69,2.86,3.09,1.86,1.7,3.66,2.85,5.02,3.59,3.2.99,6.7,1.88,10.49,2.57,12.67,2.3,23.82,1.47,32.21,0,1.4-.15,3.13-.46,5.05-1.1,2.25-.75,4.04-1.72,5.35-2.56.15.13.29.27.45.39,1.27,1,2.68,1.8,4.25,2.39,1.56.59,3.14.88,4.73.88h10.35c4,0,7.51-1.21,10.53-3.62,1.28,1.17,2.84,2.09,4.69,2.74,1.59.59,3.19.88,4.78.88h20.71c3.95,0,7.45-1.22,10.49-3.67.13.12.25.24.39.35,2.77,2.21,5.78,3.32,9.03,3.32h33.1c2.36,0,4.57-.46,6.64-1.37,1.38-.61,2.63-1.38,3.78-2.27.14.12.27.25.42.37,2.74,2.18,5.77,3.27,9.07,3.27h10.35c4.66,0,8.64-1.65,11.95-4.96,1.53,1.48,3.33,2.67,5.4,3.58,2.06.92,4.25,1.37,6.55,1.37s4.57-.44,6.64-1.33c2.06-.88,3.88-2.12,5.44-3.72,1.56-1.59,2.8-3.42,3.72-5.49.91-2.06,1.37-4.28,1.37-6.64v-17.88c0-2.36-.46-4.56-1.37-6.59-.91-2.04-2.15-3.85-3.72-5.44-1.56-1.59-3.35-2.83-5.35-3.72-2.01-.89-4.1-1.33-6.28-1.33-2.6,0-4.93.44-6.99,1.33-4.19,1.83-7.26,4.9-9.2,9.2-.94,2.12-1.42,4.34-1.42,6.64v25.66c0,1.83-.66,3.41-1.99,4.73-1.33,1.33-2.91,1.99-4.73,1.99h-10.35c-1.83,0-2.74-.8-2.74-2.39v-30.09c0-2.36-.46-4.56-1.37-6.59-.92-2.04-2.15-3.85-3.72-5.44-1.56-1.59-3.38-2.85-5.44-3.76-2.07-.91-4.28-1.37-6.64-1.37s-4.51.47-6.64,1.42c-4.31,1.95-7.35,5.02-9.12,9.2-.94,2.07-1.42,4.48-1.42,7.26,0,2.01.91,3.57,2.74,4.69,3.19,2.01,4.78,4.75,4.78,8.23,0,1.71-.44,3.36-1.33,4.96-.18.3-.38.44-.62.44h-.44c-.18,0-.32-.21-.44-.62-.41-1.47-1.27-2.48-2.57-3.01-.53-.24-1.09-.35-1.68-.35-.77,0-1.54.21-2.3.62-1.54.88-2.3,2.15-2.3,3.81,0,.77.21,1.54.62,2.3.88,1.48,2.18,2.21,3.89,2.21.71,0,1.44-.21,2.21-.62,2.01-1.18,3.81-2.96,5.4-5.35,1.59-2.39,2.39-5.12,2.39-8.19v-17.7c0-1.83.66-3.41,1.99-4.73,1.33-1.33,2.93-1.99,4.82-1.99s3.41.66,4.73,1.99c1.33,1.33,1.99,2.91,1.99,4.73v33.63c0,1.89-.66,3.48-1.99,4.78-1.33,1.3-2.91,1.95-4.73,1.95l-13.54-.09-9.2.09h-10.35c-1.83,0-2.74-.8-2.74-2.39v-30.09l-7.7,4.42c-1.83,1.18-2.74,2.77-2.74,4.78v16.55c0,1.83-.65,3.41-1.95,4.73-1.3,1.33-2.89,1.99-4.78,1.99h-20.71c-1.89,0-2.83-.8-2.83-2.39v-73.63l-7.61,4.42c-1.83,1.18-2.74,2.77-2.74,4.78v60.09c0,1.89-.66,3.48-1.99,4.78-1.33,1.3-2.94,1.95-4.82,1.95h-10.35c-1.83,0-2.74-.8-2.74-2.39v-30.09c0-2.36-.44-4.57-1.33-6.64-.89-2.06-2.12-3.88-3.72-5.44-1.59-1.56-3.41-2.8-5.44-3.72-2.04-.91-4.23-1.37-6.59-1.37-4.54,0-8.54,1.7-11.99,5.09-3.45,3.39-5.18,7.42-5.18,12.08v17.88c-.11,1.55-.04,3.82,1.09,6.09,1.6,3.19,4.39,4.52,3.95,5.95-.16.52-.78,1.17-3.1,1.5ZM1089.27,682.13c0,1.89-.66,3.48-1.99,4.78-1.33,1.3-2.91,1.95-4.73,1.95s-3.5-.65-4.82-1.95c-1.33-1.3-1.99-2.89-1.99-4.78v-33.63c0-1.83.66-3.41,1.99-4.73,1.33-1.33,2.93-1.99,4.82-1.99s3.41.66,4.73,1.99c1.33,1.33,1.99,2.91,1.99,4.73v33.63ZM1267.42,682.22c0,1.83-.66,3.41-1.99,4.73-1.33,1.33-2.91,1.99-4.73,1.99s-3.5-.66-4.82-1.99c-1.33-1.33-1.99-2.91-1.99-4.73v-33.72c0-1.83.66-3.39,1.99-4.69,1.33-1.3,2.93-1.95,4.82-1.95s3.41.65,4.73,1.95c1.33,1.3,1.99,2.86,1.99,4.69v33.72Z"/>
      </g>
      <g>
        <path class="cls-3" d="M1479.92,704.53l4.07-4.07c.41-.47.62-1,.62-1.59s-.21-1.12-.62-1.59l-4.07-4.07-4.07,4.07c-.47.47-.71,1-.71,1.59s.24,1.12.71,1.59l4.07,4.07Z"/>
        <path class="cls-3" d="M1368.82,682.41v-30.09c0-4.72-1.7-8.78-5.09-12.17-3.39-3.39-7.42-5.09-12.08-5.09-2.3,0-4.5.47-6.59,1.42-2.1.94-3.91,2.2-5.44,3.76-1.54,1.56-2.77,3.38-3.72,5.44-.94,2.07-1.42,4.28-1.42,6.64v17.79c0,2.36.47,4.57,1.42,6.64.94,2.07,2.18,3.89,3.72,5.49,1.24,1.24,2.66,2.27,4.25,3.1-1.89.47-3.6,1.36-5.13,2.66-2.83,2.24-4.25,5.13-4.25,8.67v7.88l7.7-4.42c1.83-1.18,2.74-2.77,2.74-4.78v-5.66c0-1.59.91-2.39,2.74-2.39h3.98c3.95,0,7.45-1.21,10.49-3.63.13.12.26.24.4.36,2.71,2.18,5.75,3.27,9.12,3.27v-2.48c-1.89-.06-2.83-.85-2.83-2.39ZM1358.47,678.07c0,1.83-.66,3.41-1.99,4.73-1.33,1.33-2.94,1.99-4.82,1.99s-3.41-.66-4.73-1.99-1.99-2.91-1.99-4.73v-33.72c0-1.83.66-3.39,1.99-4.69,1.33-1.3,2.91-1.95,4.73-1.95s3.5.65,4.82,1.95c1.33,1.3,1.99,2.86,1.99,4.69v33.72Z"/>
        <path class="cls-3" d="M1489.78,655.58v21.06c0,1.83-.65,3.41-1.95,4.73-1.3,1.33-2.89,1.99-4.78,1.99s-13.79.58-13.79-.96v-35.49c0-3.54-1.36-6.4-4.07-8.58-2.71-2.18-5.75-3.27-9.12-3.27h-3.98c-4.66,0-8.67,1.68-12.04,5.04-1.3,1.3-2.36,2.74-3.19,4.34,0-1.47.62-3.07,1.86-4.78,1.12-1.53,2.42-2.83,3.89-3.89,1.83-1.12,2.74-2.68,2.74-4.69v-13.19l-7.7,4.43c-1.83,1.18-2.74,2.77-2.74,4.78v50.89c0,1.89-.66,3.48-1.99,4.78-1.33,1.3-14.77,1.95-16.59,1.95h-19.91c-1.89,0-3.48-.65-4.78-1.95-1.3-1.3-1.95-2.86-1.95-4.69v-33.72c0-1.83.65-3.41,1.95-4.73,1.3-1.33,2.89-1.99,4.78-1.99h3.98c1.83,0,2.74.8,2.74,2.39v22.04c0,3.07.81,5.8,2.43,8.19,1.62,2.39,3.44,4.17,5.44,5.35.71.41,1.45.62,2.21.62.35,0,.91-.1,1.68-.31.77-.21,1.47-.84,2.12-1.9.41-.71.62-1.44.62-2.21,0-.41-.1-1-.31-1.77-.21-.77-.84-1.47-1.9-2.12-.77-.41-1.54-.62-2.3-.62-2.18,0-3.6,1.12-4.25,3.36-.12.41-.41.62-.88.62-.3,0-.53-.15-.71-.44-.89-1.59-1.33-3.3-1.33-5.13,0-.59.15-1.67.44-3.23.29-1.56,1.77-3.17,4.42-4.82,1.83-1.12,2.74-2.68,2.74-4.69v-6.02c0-1.77-.38-3.39-1.15-4.87-1.54-2.95-3.98-4.98-7.35-6.11-1.54-.59-3.1-.88-4.69-.88h-3.98c-4.6,0-8.61,1.68-12.04,5.04-3.42,3.36-5.13,7.41-5.13,12.12v17.88c0,3.36,1.03,6.64,3.1,9.82.53.77.8,1.42.8,1.95,0,.47-.15.94-.44,1.42-.59.94-1.39,1.42-2.39,1.42h-8.67v2.57h80.45c3.98,0,7.48-1.21,10.49-3.62.13.12.25.24.39.35,2.71,2.18,16.71,1.93,20.07,1.93,4.66,0,8.69-1.7,12.08-5.09,3.39-3.39,5.09-7.39,5.09-11.99v-22.48l-7.7,4.42c-1.83,1.18-2.74,2.77-2.74,4.78ZM1458.91,677.99c0,1.89-.66,3.48-1.99,4.78-1.33,1.3-2.94,1.95-4.82,1.95h-11.86c1.65-1.12,2.98-2.6,3.98-4.42.77-1.47,1.15-3.1,1.15-4.87v-31.06c0-1.83.66-3.41,1.99-4.73,1.33-1.33,2.91-1.99,4.73-1.99h3.98c1.89,0,2.83.77,2.83,2.3v38.05Z"/>
      </g>
      <g>
        <path class="cls-3" d="M1583.26,663.65c1.27.74,2.64,1.11,4.12,1.11,1.65,0,3.27-.44,4.87-1.33l8.41-4.87-2.21-1.33c-.3-.18-.59-.27-.89-.27-.24,0-.5.09-.8.27l-6.73,3.89c-.3.18-.62.27-.97.27-.77,0-1.33-.32-1.68-.97-.24-.41-.35-.8-.35-1.15,0-.65.29-1.18.88-1.59.35-.24.83-.5,1.42-.8l-.53.27c.12-.06.31-.16.58-.31.27-.15.63-.37,1.11-.66.47-.29.71-.74.71-1.33v-2.66l-2.57,1.5c-1.24.71-2.04,1.74-2.39,3.1-.12.47-.18.97-.18,1.5,0,1.65.68,2.98,2.04,3.98-1.12.53-2.04.8-2.74.8-1.77,0-3.1-.83-3.98-2.48-.35-.65-.53-1.3-.53-1.95,0-.12.06-.21.18-.27l.27.09c.29.24.62.35.97.35.53,0,.91-.21,1.15-.62.12-.24.18-.44.18-.62,0-.53-.24-.94-.71-1.24-.18-.12-.35-.18-.53-.18-.59,0-1,.24-1.24.71-.41.77-.62,1.54-.62,2.3,0,.53.09,1.03.27,1.5.41,1.24,1.25,2.23,2.52,2.96Z"/>
        <path class="cls-3" d="M1630.21,656.88v21.06c0,1.83-.65,3.41-1.95,4.73-1.3,1.33-2.89,1.99-4.78,1.99s-2.74-.8-2.74-2.39v-49.74l-7.7,4.42c-1.83,1.18-2.74,2.77-2.74,4.78v36.28c0,1.83-.66,3.41-1.99,4.73-1.33,1.33-2.91,1.99-4.73,1.99h-29.29c-1.83,0-2.74-.8-2.74-2.39v-16.02c0-3.07-.81-5.8-2.43-8.19-1.62-2.39-3.44-4.17-5.44-5.35-.77-.41-1.5-.62-2.21-.62-1.65,0-2.95.77-3.89,2.3-.41.71-.62,1.45-.62,2.21,0,1.59.77,2.86,2.3,3.81.77.41,1.53.62,2.3.62.53,0,1.09-.12,1.68-.35,1.3-.53,2.15-1.53,2.57-3.01.12-.41.41-.62.88-.62.29,0,.53.15.71.44.83,1.59,1.24,3.25,1.24,4.96,0,3.48-1.59,6.23-4.78,8.23-1.83,1.18-2.74,2.77-2.74,4.78,0,1.77.38,3.38,1.15,4.82.77,1.45,1.78,2.67,3.05,3.67,1.27,1,2.68,1.79,4.25,2.35,1.56.56,3.14.84,4.73.84h29.29c3.98,0,7.47-1.2,10.49-3.59.12.1.23.21.36.31,2.74,2.18,5.77,3.27,9.07,3.27,4.66,0,8.69-1.7,12.08-5.09,3.39-3.39,5.09-7.39,5.09-11.99v-22.48l-7.7,4.42c-1.83,1.18-2.74,2.77-2.74,4.78Z"/>
        <path class="cls-3" d="M1640.74,632.63l-4.07,4.07c-.24.24-.41.44-.53.62-.06-.18-.21-.38-.44-.62l-4.07-4.07-4.07,4.07c-.41.47-.62,1-.62,1.59s.21,1.12.62,1.59l4.07,4.07,4.07-4.07c.23-.24.38-.44.44-.62.12.18.29.38.53.62l4.07,4.07,4.07-4.07c.41-.47.62-1,.62-1.59s-.21-1.12-.62-1.59l-4.07-4.07Z"/>
        <path class="cls-3" d="M1767.91,640.15c-3.36-3.36-7.38-5.04-12.04-5.04-2.3,0-4.5.47-6.59,1.42-2.1.94-3.91,2.18-5.44,3.72-1.54,1.53-2.77,3.33-3.72,5.4-.94,2.07-1.42,4.28-1.42,6.64v17.88c0,2.3.47,4.48,1.42,6.55.35.77.71,1.45,1.06,2.04.35.59.68,1.15.97,1.68.29.53.44,1.03.44,1.5,0,.41-.15.86-.44,1.33-.41.77-1.03,1.24-1.86,1.42h-8.32c-1.89,0-2.83-.8-2.83-2.39v-10.98c.06-.63.09-1.28.09-1.94,0-11.45-.03-17.46-.09-18.05-.24-4.37-1.92-8.11-5.04-11.24-3.48-3.36-7.49-5.04-12.04-5.04s-8.54,1.7-11.99,5.09c-3.45,3.39-5.18,7.42-5.18,12.08v4.42l7.61-4.42c1.83-1.12,2.74-2.71,2.74-4.78v-3.1c0-1.83.66-3.41,1.99-4.73,1.33-1.33,2.93-1.99,4.82-1.99s3.41.66,4.73,1.99c1.33,1.33,1.99,2.91,1.99,4.73v4.6c-.06.88-.41,1.65-1.06,2.3-.65.65-1.45.97-2.39.97h-3.27c-2.36,0-4.57.47-6.64,1.42-4.19,1.77-7.26,4.81-9.2,9.12-.89,2.12-1.33,4.57-1.33,7.35,0,3.01.83,5.93,2.48,8.76l.97,1.68c.29.47.44.94.44,1.42,0,.41-.12.86-.35,1.33-.65.94-1.48,1.42-2.48,1.42h-7.79c-1.89,0-2.83-.8-2.83-2.39v-30.09c0-2.36-.44-4.57-1.33-6.64-.89-2.06-2.12-3.88-3.72-5.44-1.59-1.56-3.42-2.79-5.49-3.67-2.07-.89-4.28-1.33-6.64-1.33-4.66,0-8.67,1.71-12.04,5.13-3.36,3.42-5.04,7.4-5.04,11.95v17.88c0,2.3.44,4.48,1.33,6.55,1.83,4.19,4.9,7.26,9.2,9.2,2.06.94,4.25,1.42,6.55,1.42h3.27c.94,0,1.74.32,2.39.97.65.65,1,1.42,1.06,2.3-.3,4.9-2.6,8.44-6.9,10.62-1.77.71-3.66,1.06-5.66,1.06-.12,0-.78-.03-1.99-.09-1.21-.06-2.7-.56-4.47-1.5-.24-.18-.35-.35-.35-.53v-.35c0-.18.18-.32.53-.44,1.3-.41,2.21-1.21,2.74-2.39.18-.47.27-.97.27-1.5,0-.65-.18-1.33-.53-2.04-.83-1.36-1.95-2.04-3.36-2.04-.71,0-1.42.18-2.12.53-1.36.77-2.04,1.95-2.04,3.54,0,.65.18,1.3.53,1.95,1.06,1.83,2.68,3.47,4.87,4.91,2.18,1.45,4.63,2.17,7.35,2.17,3.13-.12,5.96-.89,8.5-2.3,2.77-1.54,5.13-3.54,7.08-6.02,1.95-2.48,3.44-5.28,4.47-8.41.11-.35.22-.7.32-1.05,1.3.39,2.65.6,4.06.6h23.89c2.36,0,4.57-.46,6.64-1.37,1.37-.61,2.62-1.38,3.76-2.29.15.13.29.26.44.39,2.74,2.18,5.77,3.27,9.07,3.27h23.89c4.66,0,8.67-1.68,12.04-5.04,3.36-3.36,5.04-7.37,5.04-12.04v-17.88c0-4.72-1.68-8.76-5.04-12.12ZM1674.99,677.94c0,1.77-.66,3.33-1.99,4.69-1.33,1.36-2.94,2.04-4.82,2.04s-3.41-.66-4.73-1.99c-1.33-1.33-1.99-2.91-1.99-4.73v-33.63c0-1.83.66-3.41,1.99-4.73,1.33-1.33,2.91-1.99,4.73-1.99s3.5.65,4.82,1.95c1.33,1.3,1.99,2.89,1.99,4.78v33.63ZM1718.79,677.94c0,1.83-.66,3.41-1.99,4.73-1.33,1.33-2.91,1.99-4.73,1.99s-3.5-.66-4.82-1.99c-1.33-1.33-1.99-2.91-1.99-4.73v-16.46c0-1.89.66-3.48,1.99-4.78,1.33-1.3,2.93-1.95,4.82-1.95s3.41.65,4.73,1.95c1.33,1.3,1.99,2.89,1.99,4.78v16.46ZM1762.6,678.03c0,1.83-.66,3.41-1.99,4.73-1.33,1.33-2.94,1.99-4.82,1.99-1.83-.06-3.41-.74-4.73-2.04-1.33-1.3-1.99-2.86-1.99-4.69v-33.63c0-1.89.66-3.48,1.99-4.78,1.33-1.3,2.93-1.95,4.82-1.95s3.41.65,4.73,1.95c1.33,1.3,1.99,2.89,1.99,4.78v33.63Z"/>
        <path class="cls-3" d="M1751.36,632.72l4.07-4.07c.18-.24.32-.47.44-.71.12.24.27.47.44.71l4.07,4.07,4.07-4.07c.47-.47.71-1,.71-1.59s-.24-1.15-.71-1.68l-4.07-3.98-4.07,3.98c-.18.24-.32.5-.44.8-.12-.29-.27-.56-.44-.8l-4.07-3.98-4.07,3.98c-.47.53-.71,1.09-.71,1.68s.24,1.12.71,1.59l4.07,4.07Z"/>
      </g>
    </g>
  </g>
  <polygon class="cls-3" points="728.72 30.85 723.72 863.99 718.72 30.85 728.72 30.85 728.72 30.85"/>
  <g>
    <path class="cls-3" d="M599.17,646.14v12.18c0,13.15-10.66,23.8-23.8,23.8H23.8c-13.15,0-23.8-10.66-23.8-23.8V199.26c0-1.27.1-2.54.3-3.79,3.55-21.7,16.44-80.64,68.05-131.24,30.61-30.02,63.85-46.32,90.19-55.27,17.86-6.06,35.37,9.96,30.82,28.27h0c-1.99,8-7.97,14.42-15.82,16.92-12.4,3.93-26.32,9.99-40.24,19.44-57.87,39.27-69.68,105.78-72.11,123.58-.15,1.13-.23,2.26-.22,3.39.98,132.71,1.95,265.42,2.93,398.14.1,13.08,10.73,23.63,23.8,23.63h487.67c13.15,0,23.8,10.66,23.8,23.8Z"/>
    <path class="cls-3" d="M570.52,193.64c-26.12-11.68-59.31-3.66-67.31-1.73-1.49.36-2.72.68-3.55.91-43.11-117.75-169.41-169.93-280.27-102.34-90.74,55.32-119.33,173.06-65.57,263.44,23.66,39.78,76.61,80.54,122.37,89.79,73.34,14.85,142.71-16.01,187.06-73.98,3.04-3.96,5.03-9.96,8.38-14.64,5.9-8.24,14.51-16.11,17.42-25.96,16.23,26.7,53.28,15.47,69.13,11.61,4.05-.98,52.21-20.27,56.32-69.37,2.97-35.43-18.76-66.47-43.98-77.74ZM412.44,96.65l-28.75-13.22c-31.55-13.24-69.61-9.14-110.09-5.41,58.41-26.85,111.69-10.52,138.84,18.64ZM230.17,406.02l36.1,13.64c39.72,13.38,89.56,4.67,142.49-3.79-78.43,38.81-146.11,23.65-178.59-9.85ZM275.63,378.78c-125.85-43.98-112.64-244.28,26.54-253.3,45.2-2.94,76.59,8.37,108.34,39.65,93.99,92.58-9.91,257.33-134.88,213.66ZM589.24,261.4c-10.25,52.21-67.98,35.56-67.98,35.56-3.55-6.65-10.18-21.19-9.83-40.68.32-17.82,6.32-31.15,9.83-37.73,37-12.43,73.93,12.52,67.98,42.86ZM591.41,214.29c-12.8-12.16-28.07-16.77-44.31-22,23.25-3.21,44.82,14.31,55.99,33.65l-11.68-11.66Z"/>
    <path class="cls-3" d="M559.34,382.45c-2.84-3.34-37.08-2.57-42.78.21-9.98,4.86-21.5,27.32-28.87,36.62-56.26,71.12-153.79,95.07-236.82,58.32-39.54-17.49-65.24-48.78-95.86-77.63-1.17,3.58,4.87,9.89,7.07,12.41,31.75,36.45,73.57,69.8,121.28,81.43.44,3.14-3.98,1.72-5.76,1.34-11.42-2.48-27.43-8.21-37.91-13.44-35.79-17.87-61.44-47.97-90.03-74.61-4.45-4.15-12.01-18.73-18.58-11.62-13.34,14.43,7.73,65.52,15.65,81.8,60.8,125.09,249.16,128.37,340.04,34.91,21.82-22.45,70.16-88.1,72.73-118.46.31-3.7.28-7.62-.16-11.29ZM554.25,394.63l-1.29-3.48-25.27-7.11c3.79-.94,26.94,2.31,28.11,3.71.35.42,1.54,7.56-1.54,6.88Z"/>
    <text class="cls-2" transform="translate(0 781.03)"><tspan x="0" y="0">LINE COFFEE</tspan></text>
    <g>
      <path class="cls-3" d="M332.48,309.16c-.47-4.64,5.36-13.45,5.99-19.97,3.39-35.23-34.65-41.32-44.86-68.4-4.72-12.5-3.29-25.86-3.29-25.86.34-8.78,2.09-15.97,3.63-20.88,1.32-3.45,2.44-7.52.77-8.96-3.63-3.15-19.2,7.24-27.44,15.84-19.77,20.63-23.56,58.25-11.78,87.99,10.22,25.77,38.95,53.67,67.44,56.88,6.47.73,15.26,0,22.06,0,.14,0,2.64-1.2,2.5-1.5-3.87-3.64-14.45-9.37-15.02-15.13ZM316.78,313.96c-23.81,3.07-29.95-20.73-29.95-20.73,0,0,40.7,0,29.95,20.73Z"/>
      <path class="cls-3" d="M391.58,220.14c-10.22-25.77-38.95-53.67-67.44-56.88-6.47-.72-15.26,0-22.06,0-.14,0-2.63,1.21-2.5,1.5,3.88,3.65,14.45,9.37,15.02,15.13.47,4.65-5.36,13.46-5.99,19.97-3.39,35.23,34.65,41.32,44.86,68.4,4.72,12.5,3.29,25.86,3.29,25.86-.33,8.79-2.08,15.97-3.63,20.89-1.32,3.44-2.44,7.51-.77,8.95,3.63,3.15,19.2-7.24,27.44-15.83,19.77-20.63,23.56-58.25,11.78-88ZM322.33,168.83s35.92,1.54,44.36,26.88c8.45,25.34-44.36-26.88-44.36-26.88Z"/>
    </g>
    <g>
      <path class="cls-3" d="M558.79,508.66c-13.6.28-27.53,11.67-33.58,25.65-5.23,12.11-4.95,31.17,3.55,41.84,1.94,2.42,5.14,5.13,7.43,7.42.05.05,1.29.48,1.34.34-.07-2.54-1.7-8.02.04-10.15,1.41-1.72,6.34-2.73,8.74-4.71,13-10.71,2.24-25.56,7.92-38.12,2.62-5.79,7.6-9.8,7.6-9.8,3.07-2.85,6.08-4.68,8.25-5.82,1.6-.71,3.35-1.7,3.27-2.75-.16-2.28-8.89-4.02-14.56-3.9ZM530.67,570.1c-9.05-6.98-3.1-17.06-3.1-17.06,0,0,13.7,13.7,3.1,17.06Z"/>
      <path class="cls-3" d="M583.87,521.86c-1.93-2.43-5.14-5.14-7.42-7.43-.05-.04-1.3-.48-1.35-.33.08,2.53,1.71,8.01-.04,10.15-1.4,1.72-6.33,2.72-8.74,4.7-12.99,10.71-2.24,25.57-7.92,38.12-2.62,5.79-7.6,9.81-7.6,9.81-3.07,2.84-6.07,4.67-8.25,5.81-1.6.71-3.35,1.71-3.27,2.75.16,2.28,8.89,4.03,14.56,3.91,13.6-.29,27.53-11.68,33.58-25.66,5.24-12.11,4.96-31.17-3.55-41.83ZM587.27,547.1c-5.69,11.37-5.89-23.98-5.89-23.98,0,0,11.57,12.61,5.89,23.98Z"/>
    </g>
  </g>
</svg>