<?xml version="1.0" encoding="UTF-8"?>
<svg id="Layer_1" data-name="Layer 1" xmlns="http://www.w3.org/2000/svg" viewBox="0 0 2652.39 1158.95">
  <defs>
    <style>
      .cls-1, .cls-2, .cls-3 {
        fill: #fff;
      }

      .cls-4 {
        fill: none;
      }

      .cls-2 {
        font-family: PlayfairDisplay-Black, 'Playfair Display';
        font-size: 119.58px;
        font-weight: 800;
      }

      .cls-3 {
        font-family: VLAX, VLAX;
        font-size: 450.54px;
      }
    </style>
  </defs>
  <rect class="cls-4" x="1217.16" y="-459.58" width="1661.6" height="2088.36"/>
  <text class="cls-3" transform="translate(1068.98 638.88)"><tspan x="0" y="0">لاين كوفي</tspan></text>
  <path class="cls-1" d="M1444.1,855.91l5.31-5.43c.63-.63.94-1.34.94-2.12s-.32-1.49-.94-2.12l-5.31-5.43-5.43,5.43c-.63.63-.94,1.34-.94,2.12s.31,1.5.94,2.12l5.43,5.43Z"/>
  <path class="cls-1" d="M1522.83,894.04l5.43-5.43c.26-.3.45-.61.59-.94.14.33.33.65.59.94l5.43,5.43,5.43-5.43c.63-.63.94-1.34.94-2.12s-.31-1.49-.94-2.13l-5.43-5.43-5.43,5.43c-.26.3-.45.61-.59.95-.14-.33-.33-.65-.59-.95l-5.43-5.43-5.43,5.43c-.63.63-.94,1.34-.94,2.13s.32,1.5.94,2.12l5.43,5.43Z"/>
  <path class="cls-1" d="M1609.38,855.91l5.43-5.43c.55-.63.83-1.34.83-2.12s-.28-1.49-.83-2.12l-5.43-5.43-5.43,5.43c-.63.63-.94,1.34-.94,2.12s.31,1.5.94,2.12l5.43,5.43Z"/>
  <path class="cls-1" d="M1423.79,923.91c-20.08,1.66-35.72-1.22-39.34-7.21-1.46-2.42-1.96-5.05-1.96-5.05-1.13-5.87,1.64-10.81,2.81-12.66.22-10.08-1.09-17.84-2.33-21.65-1.03-3.15-2.52-6.4-2.52-6.4-.82-1.79-1.21-2.74-1.99-3.93-2.12-3.23-4.53-5.59-7.2-7.08-.94-.55-1.93-.83-2.95-.83-2.28,0-4.01.98-5.19,2.95-.55,1.02-.83,2.01-.83,2.95,0,2.28.98,4.01,2.95,5.19,1.02.55,2.05.83,3.07.83.79,0,1.53-.16,2.24-.47,1.73-.79,2.87-2.12,3.42-4.01.24-.55.59-.87,1.06-.94.47,0,.83.2,1.06.59,1.18,2.2,1.77,4.49,1.77,6.85,0,.87-.08,1.73-.24,2.6-.55,3.23-2.6,5.94-6.14,8.15-2.44,1.58-3.66,3.74-3.66,6.49v.71c.08,4.41.83,8.74,2.24,12.99,1.49,4.64,3.68,8.79,6.55,12.45,1.69,2.15,3.23,3.59,3.81,4.12,2.48,2.27,4.88,3.8,6.69,4.79,4.27,1.32,8.94,2.51,13.99,3.42,16.9,3.06,31.78,1.97,42.97,0,1.86-.2,4.17-.62,6.73-1.47,3-1,5.38-2.3,7.13-3.42.2.17.39.36.6.52,1.69,1.34,3.58,2.4,5.67,3.19,2.08.79,4.19,1.18,6.32,1.18h13.81c5.33,0,10.02-1.62,14.05-4.84,1.71,1.56,3.78,2.79,6.26,3.65,2.13.79,4.25,1.18,6.38,1.18h27.63c5.27,0,9.94-1.63,13.99-4.89.18.15.34.31.53.46,3.7,2.95,7.71,4.43,12.04,4.43h44.15c3.15,0,6.1-.61,8.85-1.83,1.84-.81,3.51-1.84,5.05-3.03.19.16.36.34.56.49,3.66,2.91,7.69,4.37,12.1,4.37h13.81c6.22,0,11.53-2.2,15.94-6.61,2.05,1.97,4.45,3.56,7.2,4.78,2.75,1.22,5.67,1.83,8.74,1.83s6.1-.59,8.85-1.77c2.75-1.18,5.17-2.83,7.26-4.96,2.08-2.12,3.74-4.56,4.96-7.32,1.22-2.75,1.83-5.71,1.83-8.85v-23.85c0-3.15-.61-6.08-1.83-8.8-1.22-2.72-2.87-5.14-4.96-7.26-2.09-2.12-4.47-3.78-7.14-4.96-2.68-1.18-5.47-1.77-8.38-1.77-3.46,0-6.57.59-9.33,1.77-5.59,2.44-9.68,6.53-12.28,12.28-1.26,2.83-1.89,5.78-1.89,8.85v34.24c0,2.44-.89,4.54-2.66,6.32-1.77,1.77-3.88,2.66-6.32,2.66h-13.81c-2.44,0-3.66-1.06-3.66-3.19v-40.14c0-3.15-.61-6.08-1.83-8.8-1.22-2.72-2.87-5.14-4.96-7.26-2.09-2.12-4.51-3.8-7.26-5.02-2.76-1.22-5.71-1.83-8.85-1.83s-6.02.63-8.85,1.89c-5.75,2.6-9.8,6.69-12.16,12.28-1.26,2.76-1.89,5.98-1.89,9.68,0,2.68,1.22,4.76,3.66,6.26,4.25,2.68,6.38,6.34,6.38,10.98,0,2.28-.59,4.49-1.77,6.61-.24.39-.51.59-.83.59h-.59c-.24,0-.43-.27-.59-.83-.55-1.97-1.69-3.31-3.42-4.01-.71-.31-1.46-.47-2.24-.47-1.02,0-2.05.28-3.07.83-2.05,1.18-3.07,2.87-3.07,5.08,0,1.02.27,2.05.83,3.07,1.18,1.97,2.91,2.95,5.19,2.95.94,0,1.93-.27,2.95-.83,2.67-1.57,5.08-3.95,7.2-7.14,2.13-3.19,3.19-6.83,3.19-10.92v-23.61c0-2.44.89-4.54,2.66-6.32,1.77-1.77,3.91-2.66,6.43-2.66s4.54.89,6.32,2.66c1.77,1.77,2.66,3.88,2.66,6.32v44.86c0,2.52-.89,4.64-2.66,6.37-1.77,1.73-3.88,2.6-6.32,2.6l-18.06-.12-12.28.12h-13.81c-2.44,0-3.66-1.06-3.66-3.19v-40.14l-10.27,5.9c-2.44,1.58-3.66,3.7-3.66,6.37v22.08c0,2.44-.87,4.54-2.6,6.32-1.73,1.77-3.86,2.66-6.38,2.66h-27.63c-2.52,0-3.78-1.06-3.78-3.19v-98.22l-10.15,5.9c-2.44,1.58-3.66,3.7-3.66,6.37v80.16c0,2.52-.89,4.64-2.66,6.37-1.77,1.73-3.92,2.6-6.43,2.6h-13.81c-2.44,0-3.66-1.06-3.66-3.19v-40.14c0-3.15-.59-6.1-1.77-8.85-1.18-2.75-2.83-5.17-4.96-7.26-2.13-2.08-4.55-3.74-7.26-4.96-2.72-1.22-5.65-1.83-8.8-1.83-6.06,0-11.39,2.26-16,6.79-4.6,4.53-6.91,9.9-6.91,16.11v23.85c-.15,2.06-.06,5.1,1.46,8.12,2.13,4.26,5.85,6.03,5.27,7.93-.21.69-1.05,1.57-4.13,2.01ZM1453.07,916.35c0,2.52-.89,4.64-2.66,6.37-1.77,1.73-3.88,2.6-6.32,2.6s-4.66-.87-6.43-2.6c-1.77-1.73-2.66-3.86-2.66-6.37v-44.86c0-2.44.89-4.54,2.66-6.32,1.77-1.77,3.91-2.66,6.43-2.66s4.55.89,6.32,2.66c1.77,1.77,2.66,3.88,2.66,6.32v44.86ZM1690.72,916.47c0,2.44-.89,4.54-2.66,6.32-1.77,1.77-3.88,2.66-6.32,2.66s-4.66-.89-6.43-2.66c-1.77-1.77-2.66-3.88-2.66-6.32v-44.98c0-2.44.89-4.52,2.66-6.26,1.77-1.73,3.91-2.6,6.43-2.6s4.54.87,6.32,2.6c1.77,1.73,2.66,3.82,2.66,6.26v44.98Z"/>
  <path class="cls-1" d="M1974.19,946.24l5.43-5.43c.55-.63.83-1.34.83-2.12s-.28-1.49-.83-2.12l-5.43-5.43-5.43,5.43c-.63.63-.94,1.34-.94,2.12s.31,1.5.94,2.12l5.43,5.43Z"/>
  <path class="cls-1" d="M1825.98,916.72v-40.14c0-6.3-2.26-11.71-6.79-16.23-4.53-4.52-9.9-6.79-16.12-6.79-3.07,0-6,.63-8.79,1.89-2.79,1.26-5.22,2.93-7.26,5.02-2.05,2.09-3.7,4.51-4.96,7.26-1.26,2.76-1.89,5.71-1.89,8.85v23.73c0,3.15.63,6.1,1.89,8.85,1.26,2.76,2.91,5.19,4.96,7.32,1.65,1.65,3.54,3.03,5.67,4.13-2.52.63-4.8,1.81-6.85,3.54-3.78,2.99-5.67,6.85-5.67,11.57v10.51l10.27-5.9c2.44-1.58,3.66-3.7,3.66-6.37v-7.56c0-2.12,1.22-3.19,3.66-3.19h5.31c5.27,0,9.93-1.62,13.99-4.84.18.16.34.32.53.48,3.62,2.91,7.67,4.37,12.16,4.37v-3.31c-2.52-.08-3.78-1.14-3.78-3.19ZM1812.17,910.94c0,2.44-.89,4.54-2.66,6.32-1.77,1.77-3.92,2.66-6.43,2.66s-4.54-.89-6.32-2.66c-1.77-1.77-2.66-3.88-2.66-6.32v-44.98c0-2.44.89-4.52,2.66-6.26,1.77-1.73,3.88-2.6,6.32-2.6s4.66.87,6.43,2.6c1.77,1.73,2.66,3.82,2.66,6.26v44.98Z"/>
  <path class="cls-1" d="M1987.34,880.93v28.1c0,2.44-.87,4.54-2.6,6.32-1.73,1.77-3.86,2.66-6.38,2.66s-18.39.77-18.39-1.28v-47.34c0-4.72-1.81-8.54-5.43-11.45-3.62-2.91-7.67-4.37-12.16-4.37h-5.31c-6.22,0-11.57,2.24-16.06,6.73-1.73,1.73-3.15,3.66-4.25,5.78,0-1.97.83-4.09,2.48-6.37,1.49-2.05,3.23-3.78,5.19-5.19,2.44-1.49,3.66-3.58,3.66-6.26v-17.59l-10.27,5.9c-2.44,1.58-3.66,3.7-3.66,6.37v67.88c0,2.52-.89,4.64-2.66,6.37-1.77,1.73-19.7,2.6-22.14,2.6h-26.56c-2.52,0-4.64-.87-6.38-2.6-1.73-1.73-2.6-3.82-2.6-6.26v-44.98c0-2.44.87-4.54,2.6-6.32,1.73-1.77,3.85-2.66,6.38-2.66h5.31c2.44,0,3.66,1.06,3.66,3.19v29.4c0,4.09,1.08,7.73,3.25,10.92,2.16,3.19,4.58,5.57,7.26,7.14.94.55,1.93.83,2.95.83.47,0,1.22-.14,2.24-.41,1.02-.27,1.97-1.12,2.83-2.54.55-.94.83-1.93.83-2.95,0-.55-.14-1.34-.41-2.36-.28-1.02-1.12-1.97-2.54-2.83-1.02-.55-2.05-.83-3.07-.83-2.91,0-4.8,1.5-5.67,4.49-.16.55-.55.83-1.18.83-.39,0-.71-.2-.94-.59-1.18-2.12-1.77-4.41-1.77-6.85,0-.79.2-2.22.59-4.31.39-2.08,2.36-4.23,5.9-6.43,2.44-1.49,3.66-3.58,3.66-6.26v-8.03c0-2.36-.51-4.52-1.53-6.49-2.05-3.93-5.31-6.65-9.8-8.15-2.05-.79-4.13-1.18-6.26-1.18h-5.31c-6.14,0-11.49,2.24-16.06,6.73-4.57,4.49-6.85,9.88-6.85,16.17v23.85c0,4.49,1.38,8.85,4.13,13.1.71,1.02,1.06,1.89,1.06,2.6,0,.63-.2,1.26-.59,1.89-.79,1.26-1.85,1.89-3.19,1.89h-11.57v3.42h107.31c5.31,0,9.97-1.62,14-4.83.18.15.34.32.52.47,3.62,2.91,22.29,2.58,26.77,2.58,6.22,0,11.59-2.26,16.11-6.79,4.53-4.52,6.79-9.86,6.79-16v-29.99l-10.27,5.9c-2.44,1.58-3.66,3.7-3.66,6.37ZM1946.16,910.82c0,2.52-.89,4.64-2.66,6.37-1.77,1.73-3.92,2.6-6.43,2.6h-15.82c2.2-1.49,3.97-3.46,5.31-5.9,1.02-1.97,1.53-4.13,1.53-6.49v-41.44c0-2.44.89-4.54,2.66-6.32,1.77-1.77,3.88-2.66,6.32-2.66h5.31c2.52,0,3.78,1.02,3.78,3.07v50.76Z"/>
  <path class="cls-1" d="M2112.04,891.69c1.69.98,3.52,1.48,5.49,1.48,2.2,0,4.37-.59,6.49-1.77l11.22-6.49-2.95-1.77c-.39-.24-.79-.35-1.18-.35-.32,0-.67.12-1.06.35l-8.97,5.19c-.39.24-.83.35-1.3.35-1.02,0-1.77-.43-2.24-1.3-.32-.55-.47-1.06-.47-1.53,0-.87.39-1.57,1.18-2.12.47-.31,1.1-.67,1.89-1.06l-.71.35c.16-.08.41-.22.77-.41.35-.2.84-.49,1.48-.89.63-.39.94-.98.94-1.77v-3.54l-3.42,2.01c-1.65.94-2.72,2.32-3.19,4.13-.16.63-.24,1.3-.24,2.01,0,2.2.9,3.98,2.72,5.31-1.5.71-2.72,1.06-3.66,1.06-2.36,0-4.13-1.1-5.31-3.31-.47-.87-.71-1.73-.71-2.6,0-.16.08-.27.24-.35l.35.12c.39.32.83.47,1.3.47.71,0,1.22-.27,1.53-.83.16-.31.24-.59.24-.83,0-.71-.32-1.26-.94-1.65-.24-.16-.47-.24-.71-.24-.79,0-1.34.32-1.65.94-.55,1.02-.83,2.05-.83,3.07,0,.71.12,1.38.35,2.01.55,1.65,1.67,2.97,3.36,3.95Z"/>
  <path class="cls-1" d="M2174.67,882.66v28.1c0,2.44-.87,4.54-2.6,6.32-1.73,1.77-3.86,2.66-6.38,2.66s-3.66-1.06-3.66-3.19v-66.35l-10.27,5.9c-2.44,1.58-3.66,3.7-3.66,6.37v48.4c0,2.44-.89,4.54-2.66,6.32-1.77,1.77-3.88,2.66-6.32,2.66h-39.08c-2.44,0-3.66-1.06-3.66-3.19v-21.37c0-4.09-1.08-7.73-3.25-10.92-2.17-3.19-4.59-5.57-7.26-7.14-1.02-.55-2.01-.83-2.95-.83-2.2,0-3.94,1.02-5.19,3.07-.55.94-.83,1.93-.83,2.95,0,2.12,1.02,3.82,3.07,5.08,1.02.55,2.05.83,3.07.83.71,0,1.46-.16,2.24-.47,1.73-.71,2.87-2.05,3.42-4.01.16-.55.55-.83,1.18-.83.39,0,.71.2.94.59,1.1,2.12,1.65,4.33,1.65,6.61,0,4.64-2.12,8.3-6.37,10.98-2.44,1.58-3.66,3.7-3.66,6.37,0,2.36.51,4.51,1.53,6.43,1.02,1.93,2.38,3.56,4.07,4.9,1.69,1.34,3.58,2.38,5.67,3.13,2.08.75,4.19,1.12,6.32,1.12h39.08c5.31,0,9.97-1.6,13.99-4.79.16.14.31.28.47.42,3.66,2.91,7.69,4.37,12.1,4.37,6.22,0,11.59-2.26,16.11-6.79,4.53-4.52,6.79-9.86,6.79-16v-29.99l-10.27,5.9c-2.44,1.58-3.66,3.7-3.66,6.37Z"/>
  <path class="cls-1" d="M2188.72,850.32l-5.43,5.43c-.32.32-.55.59-.71.83-.08-.24-.28-.51-.59-.83l-5.43-5.43-5.43,5.43c-.55.63-.83,1.34-.83,2.12s.27,1.5.83,2.12l5.43,5.43,5.43-5.43c.31-.31.51-.59.59-.83.16.24.39.51.71.83l5.43,5.43,5.43-5.43c.55-.63.83-1.34.83-2.12s-.28-1.49-.83-2.12l-5.43-5.43Z"/>
  <path class="cls-1" d="M2358.36,860.35c-4.49-4.49-9.84-6.73-16.06-6.73-3.07,0-6,.63-8.8,1.89-2.79,1.26-5.21,2.91-7.26,4.96-2.05,2.05-3.7,4.45-4.96,7.2-1.26,2.76-1.89,5.71-1.89,8.85v23.85c0,3.07.63,5.98,1.89,8.74.47,1.02.94,1.93,1.42,2.72.47.79.9,1.53,1.3,2.24.39.71.59,1.38.59,2.01,0,.55-.2,1.14-.59,1.77-.55,1.02-1.38,1.65-2.48,1.89h-11.1c-2.52,0-3.78-1.06-3.78-3.19v-14.65c.08-.84.12-1.71.12-2.59,0-15.27-.04-23.3-.12-24.08-.31-5.82-2.56-10.82-6.73-14.99-4.64-4.49-10-6.73-16.06-6.73s-11.39,2.26-16,6.79c-4.6,4.53-6.91,9.9-6.91,16.11v5.9l10.15-5.9c2.44-1.49,3.66-3.62,3.66-6.37v-4.13c0-2.44.89-4.54,2.66-6.32,1.77-1.77,3.91-2.66,6.43-2.66s4.55.89,6.32,2.66c1.77,1.77,2.66,3.88,2.66,6.32v6.14c-.08,1.18-.55,2.2-1.42,3.07-.87.87-1.93,1.3-3.19,1.3h-4.37c-3.15,0-6.1.63-8.85,1.89-5.59,2.36-9.68,6.42-12.28,12.16-1.18,2.83-1.77,6.1-1.77,9.8,0,4.01,1.1,7.91,3.31,11.69l1.3,2.24c.39.63.59,1.26.59,1.89,0,.55-.16,1.14-.47,1.77-.87,1.26-1.97,1.89-3.31,1.89h-10.39c-2.52,0-3.78-1.06-3.78-3.19v-40.14c0-3.15-.59-6.1-1.77-8.85-1.18-2.75-2.83-5.17-4.96-7.26-2.12-2.08-4.56-3.72-7.32-4.9-2.76-1.18-5.71-1.77-8.85-1.77-6.22,0-11.57,2.28-16.06,6.85-4.49,4.57-6.73,9.88-6.73,15.94v23.85c0,3.07.59,5.98,1.77,8.74,2.44,5.59,6.53,9.68,12.28,12.28,2.75,1.26,5.67,1.89,8.74,1.89h4.37c1.26,0,2.32.43,3.19,1.3.87.87,1.34,1.89,1.42,3.07-.39,6.53-3.46,11.25-9.21,14.17-2.36.94-4.88,1.42-7.56,1.42-.16,0-1.04-.04-2.66-.12-1.61-.08-3.6-.75-5.96-2.01-.31-.24-.47-.47-.47-.71v-.47c0-.24.24-.43.71-.59,1.73-.55,2.95-1.61,3.66-3.19.24-.63.35-1.3.35-2.01,0-.87-.24-1.77-.71-2.72-1.1-1.81-2.6-2.72-4.49-2.72-.94,0-1.89.24-2.83.71-1.81,1.02-2.72,2.6-2.72,4.72,0,.87.24,1.73.71,2.6,1.42,2.44,3.58,4.62,6.49,6.55,2.91,1.93,6.18,2.89,9.8,2.89,4.17-.16,7.95-1.18,11.33-3.07,3.7-2.05,6.85-4.72,9.44-8.03,2.6-3.31,4.58-7.04,5.96-11.22.15-.47.3-.93.43-1.4,1.74.53,3.54.8,5.41.8h31.88c3.15,0,6.1-.61,8.85-1.83,1.83-.81,3.5-1.84,5.02-3.06.2.17.38.35.59.52,3.66,2.91,7.69,4.37,12.1,4.37h31.88c6.22,0,11.57-2.24,16.06-6.73,4.49-4.49,6.73-9.84,6.73-16.06v-23.85c0-6.3-2.24-11.69-6.73-16.17ZM2234.4,910.76c0,2.36-.89,4.45-2.66,6.26-1.77,1.81-3.92,2.72-6.43,2.72s-4.54-.89-6.32-2.66c-1.77-1.77-2.66-3.88-2.66-6.32v-44.86c0-2.44.89-4.54,2.66-6.32,1.77-1.77,3.88-2.66,6.32-2.66s4.66.87,6.43,2.6c1.77,1.73,2.66,3.86,2.66,6.37v44.86ZM2292.84,910.76c0,2.44-.88,4.54-2.66,6.32-1.77,1.77-3.88,2.66-6.32,2.66s-4.66-.89-6.43-2.66c-1.77-1.77-2.66-3.88-2.66-6.32v-21.96c0-2.52.89-4.64,2.66-6.37,1.77-1.73,3.91-2.6,6.43-2.6s4.55.87,6.32,2.6c1.77,1.73,2.66,3.86,2.66,6.37v21.96ZM2351.28,910.88c0,2.44-.88,4.54-2.66,6.32-1.77,1.77-3.92,2.66-6.43,2.66-2.44-.08-4.55-.98-6.32-2.72-1.77-1.73-2.66-3.82-2.66-6.26v-44.86c0-2.52.89-4.64,2.66-6.37,1.77-1.73,3.91-2.6,6.43-2.6s4.55.87,6.32,2.6c1.77,1.73,2.66,3.86,2.66,6.37v44.86Z"/>
  <path class="cls-1" d="M2336.29,850.43l5.43-5.43c.24-.31.43-.63.59-.94.16.32.35.63.59.94l5.43,5.43,5.43-5.43c.63-.63.94-1.34.94-2.12s-.31-1.53-.94-2.24l-5.43-5.31-5.43,5.31c-.24.32-.43.67-.59,1.06-.16-.39-.35-.75-.59-1.06l-5.43-5.31-5.43,5.31c-.63.71-.94,1.46-.94,2.24s.31,1.5.94,2.12l5.43,5.43Z"/>
  <path class="cls-1" d="M799.28,868.34v16.25c0,17.54-14.22,31.75-31.75,31.75H31.75c-17.54,0-31.75-14.22-31.75-31.75V272.21c0-1.69.13-3.38.4-5.06,4.73-28.95,21.93-107.57,90.78-175.08,40.83-40.04,85.18-61.79,120.32-73.73,23.83-8.09,47.18,13.29,41.11,37.71h0c-2.65,10.67-10.63,19.24-21.11,22.56-16.54,5.24-35.1,13.32-53.68,25.93-77.2,52.38-92.95,141.1-96.2,164.86-.21,1.5-.3,3.01-.29,4.53,1.3,177.03,2.6,354.07,3.9,531.11.13,17.45,14.31,31.52,31.75,31.52h650.54c17.54,0,31.75,14.22,31.75,31.75Z"/>
  <path class="cls-1" d="M761.06,264.71c-34.84-15.58-79.12-4.88-89.79-2.31-1.99.48-3.62.91-4.73,1.22-57.51-157.07-226-226.68-373.88-136.52-121.04,73.79-159.18,230.86-87.48,351.42,31.56,53.07,102.2,107.44,163.23,119.78,97.84,19.81,190.37-21.36,249.53-98.68,4.05-5.28,6.71-13.29,11.18-19.53,7.88-10.99,19.35-21.49,23.24-34.62,21.65,35.61,71.08,20.64,92.22,15.49,5.4-1.31,69.65-27.04,75.13-92.54,3.96-47.26-25.02-88.67-58.67-103.71ZM550.19,135.33l-38.35-17.64c-42.09-17.67-92.86-12.2-146.85-7.22,77.91-35.81,148.99-14.03,185.21,24.86ZM307.04,548.03l48.16,18.2c52.99,17.85,119.48,6.23,190.08-5.06-104.62,51.77-194.9,31.55-238.23-13.15ZM367.69,511.68c-167.88-58.67-150.26-325.87,35.4-337.9,60.3-3.92,102.17,11.17,144.53,52.89,125.37,123.5-13.21,343.28-179.92,285.01ZM786.03,355.11c-13.67,69.65-90.68,47.44-90.68,47.44-4.73-8.87-13.57-28.27-13.12-54.27.43-23.78,8.43-41.55,13.12-50.34,49.36-16.58,98.62,16.7,90.68,57.17ZM788.93,292.26c-17.08-16.22-37.45-22.37-59.11-29.34,31.01-4.28,59.79,19.08,74.69,44.89l-15.58-15.55Z"/>
  <path class="cls-1" d="M746.15,516.57c-3.78-4.45-49.47-3.42-57.06.28-13.32,6.49-28.69,36.44-38.51,48.85-75.05,94.87-205.15,126.82-315.92,77.79-52.74-23.34-87.03-65.07-127.88-103.56-1.56,4.77,6.5,13.2,9.43,16.56,42.35,48.63,98.15,93.12,161.79,108.63.59,4.19-5.31,2.3-7.69,1.79-15.23-3.3-36.59-10.95-50.58-17.93-47.74-23.84-81.97-63.99-120.09-99.52-5.94-5.54-16.02-24.98-24.78-15.5-17.8,19.24,10.31,87.41,20.88,109.13,81.11,166.87,332.38,171.25,453.61,46.57,29.11-29.94,93.59-117.52,97.02-158.02.41-4.93.37-10.16-.21-15.06ZM739.36,532.82l-1.73-4.64-33.71-9.48c5.05-1.26,35.93,3.08,37.5,4.95.47.56,2.06,10.08-2.06,9.17Z"/>
  <polygon class="cls-1" points="970.44 47.56 965.44 1158.95 960.44 47.56 970.44 47.56 970.44 47.56"/>
  <text class="cls-2" transform="translate(.01 1048.29)"><tspan x="0" y="0">LINE COFFEE</tspan></text>
  <path class="cls-1" d="M443.53,418.82c-.63-6.19,7.15-17.95,8-26.64,4.52-46.99-46.22-55.12-59.85-91.25-6.3-16.68-4.39-34.5-4.39-34.5.46-11.72,2.78-21.3,4.84-27.86,1.77-4.6,3.25-10.03,1.03-11.96-4.84-4.2-25.61,9.66-36.6,21.13-26.37,27.52-31.43,77.7-15.71,117.38,13.63,34.38,51.96,71.6,89.96,75.88,8.63.98,20.35,0,29.42,0,.19,0,3.52-1.6,3.33-2.01-5.16-4.85-19.27-12.5-20.03-20.18ZM422.58,425.22c-31.76,4.09-39.96-27.66-39.96-27.66,0,0,54.3,0,39.96,27.66Z"/>
  <path class="cls-1" d="M522.36,300.06c-13.63-34.38-51.95-71.6-89.96-75.88-8.63-.96-20.35,0-29.42,0-.19,0-3.5,1.62-3.33,2.01,5.18,4.87,19.27,12.5,20.03,20.18.63,6.21-7.15,17.96-8,26.64-4.52,46.99,46.22,55.12,59.85,91.25,6.3,16.68,4.39,34.5,4.39,34.5-.44,11.73-2.78,21.3-4.84,27.87-1.77,4.59-3.25,10.02-1.03,11.94,4.84,4.2,25.61-9.66,36.6-21.12,26.37-27.52,31.43-77.7,15.71-117.39ZM429.98,231.62s47.92,2.06,59.18,35.85c11.27,33.81-59.18-35.85-59.18-35.85Z"/>
  <path class="cls-1" d="M705.36,774.97c-11.35-14.23-11.72-39.66-4.74-55.81,8.06-18.65,26.65-33.83,44.79-34.22,7.56-.16,19.21,2.17,19.43,5.21.1,1.4-2.23,2.73-4.37,3.68-2.9,1.51-6.91,3.95-11.01,7.75,0,0-6.64,5.36-10.14,13.08-7.57,16.74,6.77,36.56-10.57,50.85-3.21,2.64-9.78,3.98-11.66,6.27-2.32,2.84-.15,10.16-.05,13.54-.07.19-1.73-.38-1.8-.45-3.05-3.05-7.32-6.67-9.9-9.9Z"/>
  <path class="cls-1" d="M778.86,702.54c11.35,14.23,11.72,39.66,4.74,55.81-8.06,18.65-26.65,33.83-44.79,34.22-7.56.16-19.21-2.17-19.43-5.21-.1-1.4,2.23-2.73,4.37-3.68,2.9-1.51,6.91-3.95,11.01-7.75,0,0,6.64-5.36,10.14-13.08,7.57-16.74-6.77-36.56,10.57-50.85,3.21-2.64,9.78-3.98,11.66-6.27,2.32-2.84.15-10.16.05-13.54.07-.19,1.73.38,1.8.45,3.05,3.05,7.32,6.67,9.9,9.9Z"/>
  <path class="cls-1" d="M775.54,704.23s15.44,16.82,7.85,31.99c-7.58,15.17-7.85-31.99-7.85-31.99Z"/>
  <path class="cls-1" d="M703.76,744.14s-7.93,13.45,4.14,22.75c14.13-4.48-4.14-22.75-4.14-22.75Z"/>
</svg>