<?xml version="1.0" encoding="UTF-8"?>
<svg id="Layer_1" data-name="Layer 1" xmlns="http://www.w3.org/2000/svg" viewBox="0 0 2554.99 1101.69">
  <defs>
    <style>
      .cls-1 {
        fill: #231f20;
      }

      .cls-2 {
        fill: none;
      }

      .cls-3 {
        font-family: PlayfairDisplay-Black, 'Playfair Display';
        font-size: 115.14px;
        font-weight: 800;
      }

      .cls-3, .cls-4, .cls-5 {
        fill: #010101;
      }

      .cls-4 {
        font-family: VLAX, VLAX;
        font-size: 433.81px;
      }
    </style>
  </defs>
  <rect class="cls-2" x="-199.2" y="-350.11" width="2873.46" height="1803.7"/>
  <g>
    <g>
      <text class="cls-4" transform="translate(1029.3 600.94)"><tspan x="0" y="0">لاين كوفي</tspan></text>
      <g>
        <g>
          <path class="cls-5" d="M1390.47,809.91l5.12-5.23c.61-.61.91-1.29.91-2.05s-.3-1.44-.91-2.05l-5.12-5.23-5.23,5.23c-.61.61-.91,1.29-.91,2.05s.3,1.44.91,2.05l5.23,5.23Z"/>
          <path class="cls-5" d="M1466.28,846.62l5.23-5.23c.25-.29.44-.59.57-.91.13.32.32.62.57.91l5.23,5.23,5.23-5.23c.61-.61.91-1.29.91-2.05s-.3-1.44-.91-2.05l-5.23-5.23-5.23,5.23c-.25.29-.44.59-.57.91-.13-.32-.32-.62-.57-.91l-5.23-5.23-5.23,5.23c-.61.61-.91,1.29-.91,2.05s.3,1.44.91,2.05l5.23,5.23Z"/>
          <path class="cls-5" d="M1549.61,809.91l5.23-5.23c.53-.61.8-1.29.8-2.05s-.27-1.44-.8-2.05l-5.23-5.23-5.23,5.23c-.61.61-.91,1.29-.91,2.05s.3,1.44.91,2.05l5.23,5.23Z"/>
          <path class="cls-5" d="M1370.92,875.38c-19.33,1.6-34.39-1.18-37.88-6.94-1.4-2.33-1.89-4.86-1.89-4.86-1.08-5.66,1.58-10.41,2.71-12.19.21-9.71-1.05-17.18-2.24-20.85-.99-3.04-2.42-6.16-2.42-6.16-.79-1.73-1.17-2.64-1.92-3.78-2.05-3.11-4.36-5.38-6.93-6.82-.91-.53-1.86-.8-2.84-.8-2.2,0-3.86.95-5,2.84-.53.99-.8,1.93-.8,2.84,0,2.2.95,3.86,2.84,5,.98.53,1.97.8,2.96.8.76,0,1.48-.15,2.16-.45,1.67-.76,2.76-2.05,3.3-3.86.23-.53.57-.83,1.02-.91.46,0,.8.19,1.02.57,1.14,2.12,1.71,4.32,1.71,6.59,0,.83-.08,1.67-.23,2.5-.53,3.11-2.5,5.72-5.91,7.84-2.35,1.52-3.52,3.6-3.52,6.25v.68c.07,4.24.8,8.41,2.16,12.5,1.44,4.47,3.54,8.47,6.31,11.99,1.63,2.07,3.11,3.45,3.67,3.97,2.38,2.19,4.69,3.66,6.44,4.62,4.11,1.27,8.61,2.41,13.47,3.3,16.27,2.95,30.6,1.89,41.37,0,1.79-.19,4.02-.59,6.48-1.42,2.88-.97,5.18-2.21,6.87-3.29.19.17.37.34.58.5,1.63,1.29,3.45,2.31,5.46,3.07,2.01.76,4.04,1.14,6.08,1.14h13.3c5.14,0,9.64-1.56,13.53-4.66,1.64,1.5,3.64,2.68,6.02,3.52,2.05.76,4.09,1.14,6.14,1.14h26.6c5.08,0,9.57-1.57,13.47-4.71.17.15.33.3.51.45,3.56,2.84,7.43,4.26,11.59,4.26h42.51c3.03,0,5.87-.59,8.52-1.76,1.77-.78,3.38-1.77,4.86-2.92.18.16.35.32.54.48,3.52,2.8,7.41,4.21,11.65,4.21h13.3c5.99,0,11.1-2.12,15.35-6.37,1.97,1.9,4.28,3.43,6.93,4.6,2.65,1.18,5.46,1.76,8.41,1.76s5.87-.57,8.53-1.71c2.65-1.14,4.98-2.73,6.99-4.77,2.01-2.05,3.6-4.39,4.77-7.05,1.17-2.65,1.76-5.49,1.76-8.53v-22.96c0-3.03-.59-5.85-1.76-8.47-1.18-2.61-2.77-4.94-4.77-6.99-2.01-2.05-4.3-3.64-6.88-4.77-2.58-1.14-5.27-1.71-8.07-1.71-3.34,0-6.33.57-8.98,1.71-5.38,2.35-9.32,6.29-11.82,11.82-1.21,2.73-1.82,5.57-1.82,8.53v32.96c0,2.35-.85,4.38-2.56,6.08-1.71,1.71-3.73,2.56-6.08,2.56h-13.3c-2.35,0-3.52-1.02-3.52-3.07v-38.65c0-3.03-.59-5.85-1.76-8.47-1.18-2.61-2.77-4.94-4.77-6.99-2.01-2.05-4.34-3.66-6.99-4.83-2.65-1.17-5.49-1.76-8.52-1.76s-5.8.61-8.53,1.82c-5.53,2.5-9.44,6.44-11.71,11.82-1.21,2.65-1.82,5.76-1.82,9.32,0,2.58,1.17,4.59,3.52,6.02,4.09,2.58,6.14,6.1,6.14,10.57,0,2.2-.57,4.32-1.71,6.37-.23.38-.49.57-.8.57h-.57c-.23,0-.42-.26-.57-.8-.53-1.89-1.63-3.18-3.3-3.86-.68-.3-1.4-.45-2.16-.45-.99,0-1.97.27-2.96.8-1.97,1.14-2.96,2.77-2.96,4.89,0,.99.26,1.97.8,2.96,1.14,1.9,2.8,2.84,5,2.84.91,0,1.86-.26,2.84-.8,2.58-1.51,4.89-3.81,6.93-6.88,2.05-3.07,3.07-6.57,3.07-10.51v-22.73c0-2.35.85-4.38,2.56-6.08,1.71-1.71,3.77-2.56,6.2-2.56s4.38.85,6.08,2.56c1.71,1.71,2.56,3.73,2.56,6.08v43.2c0,2.43-.85,4.47-2.56,6.14-1.71,1.67-3.73,2.5-6.08,2.5l-17.39-.11-11.82.11h-13.3c-2.35,0-3.52-1.02-3.52-3.07v-38.65l-9.89,5.68c-2.35,1.52-3.52,3.56-3.52,6.14v21.26c0,2.35-.84,4.38-2.5,6.08-1.67,1.71-3.71,2.56-6.14,2.56h-26.6c-2.43,0-3.64-1.02-3.64-3.07v-94.57l-9.78,5.68c-2.35,1.52-3.52,3.56-3.52,6.14v77.18c0,2.43-.85,4.47-2.56,6.14-1.71,1.67-3.77,2.5-6.2,2.5h-13.3c-2.35,0-3.52-1.02-3.52-3.07v-38.65c0-3.03-.57-5.87-1.71-8.53-1.14-2.65-2.73-4.98-4.77-6.99-2.05-2.01-4.38-3.6-6.99-4.77-2.61-1.17-5.44-1.76-8.47-1.76-5.84,0-10.97,2.18-15.4,6.54-4.43,4.36-6.65,9.53-6.65,15.52v22.96c-.15,1.99-.06,4.91,1.4,7.82,2.06,4.1,5.63,5.81,5.07,7.64-.2.67-1.01,1.51-3.98,1.93ZM1399.11,868.1c0,2.43-.85,4.47-2.56,6.14-1.71,1.67-3.73,2.5-6.08,2.5s-4.49-.83-6.19-2.5c-1.71-1.67-2.56-3.71-2.56-6.14v-43.2c0-2.35.85-4.38,2.56-6.08,1.71-1.71,3.77-2.56,6.19-2.56s4.38.85,6.08,2.56c1.71,1.71,2.56,3.73,2.56,6.08v43.2ZM1627.93,868.22c0,2.35-.85,4.38-2.56,6.08-1.71,1.71-3.73,2.56-6.08,2.56s-4.49-.85-6.2-2.56c-1.71-1.71-2.56-3.73-2.56-6.08v-43.31c0-2.35.85-4.36,2.56-6.02,1.71-1.67,3.77-2.5,6.2-2.5s4.38.83,6.08,2.5c1.71,1.67,2.56,3.68,2.56,6.02v43.31Z"/>
        </g>
        <g>
          <path class="cls-5" d="M1900.87,896.88l5.23-5.23c.53-.61.8-1.29.8-2.05s-.27-1.44-.8-2.05l-5.23-5.23-5.23,5.23c-.61.61-.91,1.29-.91,2.05s.3,1.44.91,2.05l5.23,5.23Z"/>
          <path class="cls-5" d="M1758.17,868.46v-38.65c0-6.06-2.18-11.27-6.54-15.63-4.36-4.36-9.53-6.54-15.52-6.54-2.96,0-5.78.61-8.47,1.82-2.69,1.21-5.02,2.82-6.99,4.83-1.97,2.01-3.56,4.34-4.77,6.99-1.21,2.65-1.82,5.5-1.82,8.53v22.85c0,3.03.61,5.87,1.82,8.53,1.21,2.65,2.8,5,4.77,7.05,1.59,1.59,3.41,2.92,5.46,3.98-2.43.61-4.62,1.74-6.59,3.41-3.64,2.88-5.46,6.59-5.46,11.14v10.12l9.89-5.68c2.35-1.52,3.52-3.56,3.52-6.14v-7.27c0-2.05,1.17-3.07,3.52-3.07h5.12c5.07,0,9.56-1.56,13.47-4.66.17.15.33.31.51.46,3.49,2.8,7.39,4.21,11.71,4.21v-3.18c-2.43-.07-3.64-1.1-3.64-3.07ZM1744.87,862.89c0,2.35-.85,4.38-2.56,6.08-1.71,1.71-3.77,2.56-6.2,2.56s-4.38-.85-6.08-2.56c-1.71-1.71-2.56-3.73-2.56-6.08v-43.31c0-2.35.85-4.36,2.56-6.02,1.71-1.67,3.73-2.5,6.08-2.5s4.49.83,6.2,2.5c1.71,1.67,2.56,3.68,2.56,6.02v43.31Z"/>
          <path class="cls-5" d="M1913.53,834v27.05c0,2.35-.84,4.38-2.5,6.08-1.67,1.71-3.71,2.56-6.14,2.56s-17.71.74-17.71-1.23v-45.58c0-4.55-1.74-8.22-5.23-11.03-3.49-2.8-7.39-4.21-11.71-4.21h-5.12c-5.99,0-11.14,2.16-15.46,6.48-1.67,1.67-3.03,3.52-4.09,5.57,0-1.89.8-3.94,2.39-6.14,1.44-1.97,3.11-3.64,5-5,2.35-1.44,3.52-3.45,3.52-6.02v-16.94l-9.89,5.68c-2.35,1.52-3.52,3.56-3.52,6.14v65.36c0,2.43-.85,4.47-2.56,6.14-1.71,1.67-18.97,2.5-21.31,2.5h-25.58c-2.43,0-4.47-.83-6.14-2.5-1.67-1.67-2.5-3.67-2.5-6.02v-43.31c0-2.35.83-4.38,2.5-6.08,1.67-1.71,3.71-2.56,6.14-2.56h5.11c2.35,0,3.52,1.02,3.52,3.07v28.3c0,3.94,1.04,7.45,3.13,10.51,2.08,3.07,4.41,5.36,6.99,6.88.91.53,1.86.8,2.84.8.46,0,1.17-.13,2.16-.4.98-.26,1.89-1.08,2.73-2.44.53-.91.8-1.86.8-2.84,0-.53-.13-1.29-.4-2.27-.27-.98-1.08-1.89-2.44-2.73-.99-.53-1.97-.8-2.96-.8-2.8,0-4.62,1.44-5.46,4.32-.15.53-.53.8-1.14.8-.38,0-.68-.19-.91-.57-1.14-2.05-1.71-4.24-1.71-6.59,0-.76.19-2.14.57-4.15.38-2.01,2.27-4.07,5.68-6.2,2.35-1.44,3.52-3.45,3.52-6.02v-7.73c0-2.27-.49-4.36-1.48-6.25-1.97-3.79-5.12-6.4-9.44-7.84-1.97-.76-3.98-1.14-6.02-1.14h-5.11c-5.91,0-11.07,2.16-15.46,6.48-4.4,4.32-6.59,9.51-6.59,15.57v22.96c0,4.32,1.32,8.53,3.98,12.62.68.99,1.02,1.82,1.02,2.5,0,.61-.19,1.21-.57,1.82-.76,1.21-1.78,1.82-3.07,1.82h-11.14v3.3h103.33c5.11,0,9.6-1.56,13.48-4.66.17.15.33.31.5.45,3.49,2.8,21.46,2.48,25.78,2.48,5.99,0,11.16-2.18,15.52-6.54,4.36-4.36,6.54-9.49,6.54-15.4v-28.87l-9.89,5.68c-2.35,1.52-3.52,3.56-3.52,6.14ZM1873.88,862.78c0,2.43-.85,4.47-2.56,6.14-1.71,1.67-3.77,2.5-6.19,2.5h-15.23c2.12-1.44,3.83-3.33,5.12-5.68.98-1.89,1.48-3.98,1.48-6.25v-39.9c0-2.35.85-4.38,2.56-6.08,1.71-1.71,3.73-2.56,6.08-2.56h5.12c2.42,0,3.64.99,3.64,2.96v48.88Z"/>
        </g>
        <g>
          <path class="cls-5" d="M2033.6,844.36c1.63.95,3.39,1.42,5.29,1.42,2.12,0,4.21-.57,6.25-1.71l10.8-6.25-2.84-1.71c-.38-.23-.76-.34-1.14-.34-.3,0-.64.11-1.02.34l-8.64,5c-.38.23-.8.34-1.25.34-.99,0-1.71-.42-2.16-1.25-.3-.53-.45-1.02-.45-1.48,0-.83.38-1.51,1.14-2.05.46-.3,1.06-.64,1.82-1.02l-.68.34c.15-.07.4-.21.74-.4.34-.19.81-.47,1.42-.85.61-.38.91-.95.91-1.7v-3.41l-3.3,1.93c-1.59.91-2.61,2.24-3.07,3.98-.15.61-.23,1.25-.23,1.93,0,2.12.87,3.83,2.61,5.11-1.44.68-2.61,1.02-3.52,1.02-2.27,0-3.98-1.06-5.12-3.18-.45-.83-.68-1.67-.68-2.5,0-.15.07-.26.23-.34l.34.11c.38.3.8.45,1.25.45.68,0,1.17-.26,1.48-.8.15-.3.23-.57.23-.8,0-.68-.3-1.21-.91-1.59-.23-.15-.45-.23-.68-.23-.76,0-1.29.3-1.59.91-.53.99-.8,1.97-.8,2.96,0,.68.11,1.33.34,1.93.53,1.59,1.61,2.86,3.24,3.81Z"/>
          <path class="cls-5" d="M2093.9,835.67v27.05c0,2.35-.84,4.38-2.5,6.08-1.67,1.71-3.71,2.56-6.14,2.56s-3.52-1.02-3.52-3.07v-63.88l-9.89,5.68c-2.35,1.52-3.52,3.56-3.52,6.14v46.61c0,2.35-.85,4.38-2.56,6.08-1.71,1.71-3.73,2.56-6.08,2.56h-37.63c-2.35,0-3.52-1.02-3.52-3.07v-20.57c0-3.94-1.04-7.45-3.13-10.51-2.08-3.07-4.41-5.36-6.99-6.88-.99-.53-1.93-.8-2.84-.8-2.12,0-3.79.99-5,2.96-.53.91-.8,1.86-.8,2.84,0,2.05.98,3.68,2.96,4.89.98.53,1.97.8,2.96.8.68,0,1.4-.15,2.16-.45,1.67-.68,2.77-1.97,3.3-3.86.15-.53.53-.8,1.14-.8.38,0,.68.19.91.57,1.06,2.05,1.59,4.17,1.59,6.37,0,4.47-2.05,8-6.14,10.57-2.35,1.52-3.52,3.56-3.52,6.14,0,2.27.49,4.34,1.48,6.2.98,1.86,2.29,3.43,3.92,4.72,1.63,1.29,3.45,2.29,5.46,3.01,2.01.72,4.04,1.08,6.08,1.08h37.63c5.11,0,9.6-1.54,13.47-4.61.16.13.29.27.46.4,3.52,2.8,7.41,4.21,11.65,4.21,5.99,0,11.16-2.18,15.52-6.54,4.36-4.36,6.54-9.49,6.54-15.4v-28.87l-9.89,5.68c-2.35,1.52-3.52,3.56-3.52,6.14Z"/>
          <path class="cls-5" d="M2107.43,804.52l-5.23,5.23c-.3.3-.53.57-.68.8-.08-.23-.27-.49-.57-.8l-5.23-5.23-5.23,5.23c-.53.61-.8,1.29-.8,2.05s.26,1.44.8,2.05l5.23,5.23,5.23-5.23c.3-.3.49-.57.57-.8.15.23.38.49.68.8l5.23,5.23,5.23-5.23c.53-.61.8-1.29.8-2.05s-.27-1.44-.8-2.05l-5.23-5.23Z"/>
          <path class="cls-5" d="M2270.77,814.18c-4.32-4.32-9.47-6.48-15.46-6.48-2.96,0-5.78.61-8.47,1.82-2.69,1.21-5.02,2.8-6.99,4.77-1.97,1.97-3.56,4.28-4.77,6.93-1.21,2.65-1.82,5.5-1.82,8.53v22.96c0,2.96.61,5.76,1.82,8.41.46.99.91,1.86,1.36,2.61.45.76.87,1.48,1.25,2.16.38.68.57,1.33.57,1.93,0,.53-.19,1.1-.57,1.71-.53.99-1.33,1.59-2.39,1.82h-10.69c-2.43,0-3.64-1.02-3.64-3.07v-14.1c.07-.81.11-1.64.11-2.49,0-14.7-.04-22.43-.11-23.19-.3-5.61-2.46-10.42-6.48-14.44-4.47-4.32-9.62-6.48-15.46-6.48s-10.97,2.18-15.4,6.54c-4.43,4.36-6.65,9.53-6.65,15.52v5.68l9.78-5.68c2.35-1.44,3.52-3.48,3.52-6.14v-3.98c0-2.35.85-4.38,2.56-6.08,1.71-1.71,3.77-2.56,6.2-2.56s4.38.85,6.08,2.56c1.71,1.71,2.56,3.73,2.56,6.08v5.91c-.08,1.14-.53,2.12-1.36,2.96-.83.83-1.86,1.25-3.07,1.25h-4.21c-3.03,0-5.87.61-8.53,1.82-5.38,2.27-9.32,6.18-11.82,11.71-1.14,2.73-1.71,5.87-1.71,9.43,0,3.86,1.06,7.62,3.18,11.25l1.25,2.16c.38.61.57,1.21.57,1.82,0,.53-.15,1.1-.46,1.71-.83,1.21-1.9,1.82-3.18,1.82h-10c-2.43,0-3.64-1.02-3.64-3.07v-38.65c0-3.03-.57-5.87-1.71-8.53-1.14-2.65-2.73-4.98-4.77-6.99-2.05-2.01-4.4-3.58-7.05-4.72-2.65-1.14-5.5-1.71-8.53-1.71-5.99,0-11.14,2.2-15.46,6.59-4.32,4.4-6.48,9.51-6.48,15.35v22.96c0,2.96.57,5.76,1.71,8.41,2.35,5.38,6.29,9.32,11.82,11.82,2.65,1.21,5.46,1.82,8.41,1.82h4.21c1.21,0,2.23.42,3.07,1.25.83.83,1.29,1.82,1.36,2.96-.38,6.29-3.34,10.84-8.87,13.64-2.27.91-4.7,1.36-7.28,1.36-.15,0-1.01-.04-2.56-.11-1.55-.08-3.47-.72-5.74-1.93-.3-.23-.45-.45-.45-.68v-.45c0-.23.23-.42.68-.57,1.67-.53,2.84-1.55,3.52-3.07.23-.61.34-1.25.34-1.93,0-.84-.23-1.71-.68-2.61-1.06-1.74-2.5-2.61-4.32-2.61-.91,0-1.82.23-2.73.68-1.74.98-2.61,2.5-2.61,4.55,0,.83.23,1.67.68,2.5,1.36,2.35,3.45,4.45,6.25,6.31,2.8,1.86,5.95,2.79,9.43,2.79,4.02-.15,7.65-1.14,10.91-2.96,3.56-1.97,6.59-4.55,9.09-7.73,2.5-3.18,4.41-6.78,5.74-10.8.15-.45.28-.9.42-1.34,1.67.51,3.41.77,5.21.77h30.69c3.03,0,5.87-.59,8.53-1.76,1.77-.78,3.37-1.78,4.83-2.94.19.17.37.34.57.5,3.52,2.8,7.41,4.21,11.65,4.21h30.69c5.99,0,11.14-2.16,15.46-6.48,4.32-4.32,6.48-9.47,6.48-15.46v-22.96c0-6.06-2.16-11.25-6.48-15.57ZM2151.42,862.72c0,2.27-.85,4.28-2.56,6.02-1.71,1.74-3.77,2.61-6.2,2.61s-4.38-.85-6.08-2.56c-1.71-1.71-2.56-3.73-2.56-6.08v-43.2c0-2.35.85-4.38,2.56-6.08,1.71-1.71,3.73-2.56,6.08-2.56s4.49.83,6.2,2.5c1.71,1.67,2.56,3.71,2.56,6.14v43.2ZM2207.69,862.72c0,2.35-.85,4.38-2.56,6.08-1.71,1.71-3.73,2.56-6.08,2.56s-4.49-.85-6.2-2.56c-1.71-1.71-2.56-3.73-2.56-6.08v-21.14c0-2.42.85-4.47,2.56-6.14,1.71-1.67,3.77-2.5,6.2-2.5s4.38.83,6.08,2.5c1.71,1.67,2.56,3.71,2.56,6.14v21.14ZM2263.95,862.83c0,2.35-.85,4.38-2.56,6.08-1.71,1.71-3.77,2.56-6.2,2.56-2.35-.07-4.38-.95-6.08-2.61-1.71-1.67-2.56-3.67-2.56-6.02v-43.2c0-2.42.85-4.47,2.56-6.14,1.71-1.67,3.77-2.5,6.2-2.5s4.38.83,6.08,2.5c1.71,1.67,2.56,3.71,2.56,6.14v43.2Z"/>
          <path class="cls-5" d="M2249.52,804.63l5.23-5.23c.23-.3.42-.61.57-.91.15.3.34.61.57.91l5.23,5.23,5.23-5.23c.61-.61.91-1.29.91-2.05s-.3-1.48-.91-2.16l-5.23-5.12-5.23,5.12c-.23.3-.42.64-.57,1.02-.15-.38-.34-.72-.57-1.02l-5.23-5.12-5.23,5.12c-.61.68-.91,1.4-.91,2.16s.3,1.44.91,2.05l5.23,5.23Z"/>
        </g>
      </g>
    </g>
    <g>
      <path d="M769.59,821.87v15.64c0,16.89-13.69,30.58-30.58,30.58H30.58c-16.89,0-30.58-13.69-30.58-30.58V247.89c0-1.63.13-3.26.39-4.87,4.55-27.88,21.12-103.58,87.41-168.57C127.12,35.89,169.81,14.95,203.65,3.46c22.94-7.79,45.43,12.8,39.58,36.31h0c-2.56,10.28-10.23,18.53-20.33,21.73-15.93,5.05-33.8,12.83-51.69,24.97-74.34,50.44-89.5,135.86-92.63,158.74-.2,1.45-.29,2.9-.28,4.36,1.25,170.46,2.51,340.92,3.76,511.39.12,16.8,13.78,30.35,30.57,30.35h626.38c16.89,0,30.58,13.69,30.58,30.58Z"/>
      <path d="M732.8,240.67c-33.54-15-76.18-4.7-86.45-2.23-1.92.46-3.49.88-4.56,1.17-55.37-151.24-217.6-218.26-359.99-131.44-116.55,71.05-153.27,222.29-84.23,338.37,30.39,51.09,98.4,103.45,157.17,115.34,94.21,19.07,183.3-20.56,240.27-95.02,3.9-5.09,6.46-12.8,10.76-18.8,7.58-10.58,18.63-20.69,22.38-33.34,20.85,34.29,68.44,19.87,88.8,14.91,5.2-1.26,67.06-26.04,72.34-89.11,3.81-45.51-24.09-85.37-56.49-99.86ZM529.76,116.09l-36.93-16.98c-40.52-17.01-89.42-11.74-141.4-6.95,75.02-34.48,143.46-13.51,178.33,23.94ZM295.63,513.46l46.37,17.53c51.02,17.19,115.04,6,183.02-4.87-100.73,49.85-187.66,30.38-229.38-12.66ZM354.03,478.46c-161.64-56.49-144.68-313.77,34.08-325.35,58.06-3.77,98.38,10.75,139.16,50.93,120.72,118.92-12.72,330.53-173.24,274.43ZM756.84,327.7c-13.16,67.06-87.32,45.67-87.32,45.67-4.56-8.54-13.07-27.22-12.63-52.25.41-22.89,8.11-40.01,12.63-48.47,47.53-15.97,94.95,16.08,87.32,55.05ZM759.63,267.19c-16.44-15.62-36.05-21.54-56.91-28.25,29.86-4.12,57.57,18.38,71.92,43.23l-15-14.98Z"/>
      <path d="M718.44,483.17c-3.64-4.29-47.63-3.3-54.95.27-12.83,6.25-27.62,35.09-37.08,47.04-72.26,91.35-197.53,122.11-304.19,74.9-50.79-22.47-83.8-62.66-123.13-99.72-1.51,4.6,6.26,12.71,9.08,15.94,40.78,46.82,94.5,89.66,155.78,104.6.57,4.03-5.11,2.21-7.4,1.73-14.67-3.18-35.23-10.55-48.7-17.27-45.97-22.96-78.92-61.61-115.63-95.83-5.72-5.33-15.43-24.05-23.86-14.92-17.14,18.53,9.93,84.16,20.1,105.07,78.1,160.67,320.04,164.89,436.76,44.84,28.03-28.83,90.11-113.16,93.42-152.15.4-4.75.36-9.79-.21-14.5ZM711.9,498.82l-1.66-4.47-32.46-9.13c4.87-1.21,34.6,2.96,36.11,4.76.45.54,1.98,9.71-1.98,8.83Z"/>
      <polygon class="cls-1" points="935.08 31.57 929.58 1101.69 924.08 31.57 935.08 31.57 935.08 31.57"/>
      <text class="cls-3" transform="translate(0 995.14)"><tspan x="0" y="0">LINE COFFEE</tspan></text>
      <g>
        <path d="M427.05,389.05c-.61-5.96,6.89-17.28,7.7-25.65,4.35-45.25-44.5-53.08-57.62-87.86-6.06-16.06-4.22-33.22-4.22-33.22.44-11.28,2.68-20.51,4.66-26.82,1.7-4.43,3.13-9.66.99-11.51-4.66-4.04-24.66,9.3-35.24,20.35-25.39,26.5-30.26,74.81-15.13,113.02,13.12,33.11,50.03,68.94,86.62,73.06,8.31.94,19.6,0,28.33,0,.18,0,3.39-1.55,3.21-1.93-4.97-4.67-18.56-12.04-19.29-19.43ZM406.89,395.21c-30.58,3.94-38.48-26.63-38.48-26.63,0,0,52.28,0,38.48,26.63Z"/>
        <path d="M502.96,274.7c-13.12-33.11-50.03-68.94-86.62-73.06-8.31-.93-19.6,0-28.33,0-.18,0-3.37,1.56-3.21,1.93,4.98,4.69,18.56,12.04,19.29,19.43.61,5.97-6.89,17.29-7.7,25.65-4.35,45.25,44.5,53.08,57.62,87.86,6.06,16.06,4.22,33.22,4.22,33.22-.42,11.29-2.68,20.51-4.66,26.83-1.7,4.42-3.13,9.64-.99,11.5,4.66,4.04,24.66-9.3,35.24-20.33,25.39-26.5,30.26-74.81,15.13-113.03ZM414.01,208.8s46.14,1.98,56.98,34.52c10.86,32.55-56.98-34.52-56.98-34.52Z"/>
      </g>
      <g>
        <path d="M717.73,645.29c-17.46.37-35.36,14.99-43.13,32.95-6.73,15.55-6.37,40.03,4.56,53.73,2.49,3.12,6.6,6.6,9.54,9.54.06.06,1.66.61,1.73.43-.1-3.25-2.2-10.3.04-13.03,1.81-2.22,8.14-3.5,11.23-6.05,16.69-13.76,2.88-32.83,10.17-48.96,3.37-7.44,9.76-12.6,9.76-12.6,3.95-3.65,7.81-6,10.6-7.46,2.06-.91,4.3-2.2,4.21-3.54-.21-2.93-11.43-5.17-18.71-5.01ZM681.61,724.19c-11.62-8.96-3.98-21.9-3.98-21.9,0,0,17.59,17.59,3.98,21.9Z"/>
        <path d="M749.94,662.23c-2.48-3.11-6.59-6.59-9.53-9.53-.07-.07-1.66-.62-1.73-.44.1,3.26,2.19,10.3-.05,13.04-1.8,2.21-8.14,3.5-11.22,6.04-16.7,13.76-2.89,32.84-10.18,48.96-3.36,7.44-9.76,12.6-9.76,12.6-3.94,3.66-7.81,6.01-10.6,7.46-2.06.92-4.3,2.2-4.2,3.54.21,2.93,11.42,5.17,18.7,5.02,17.47-.37,35.37-14.99,43.13-32.95,6.73-15.56,6.37-40.04-4.56-53.74ZM754.31,694.65c-7.31,14.61-7.57-30.8-7.57-30.8,0,0,14.87,16.2,7.57,30.8Z"/>
      </g>
    </g>
  </g>
</svg>